<svg width="183" height="120" viewBox="0 0 183 120" fill="none" xmlns="http://www.w3.org/2000/svg">
<g clip-path="url(#clip0_1_1092)">
<path d="M128.86 2.33057H51.27C38.6143 2.33057 28.3549 12.4942 28.3549 25.0318V85.7461C28.3549 98.2836 38.6143 108.447 51.27 108.447H128.86C141.516 108.447 151.775 98.2836 151.775 85.7461V25.0318C151.775 12.4942 141.516 2.33057 128.86 2.33057Z" fill="#B6DAFF"/>
<path d="M82.4715 95.8612H79.906V95.0964H82.4715V95.8612ZM78.1877 95.8612H76.4735V95.0964H78.1877V95.8612ZM74.7552 95.8612H73.0409V95.0964H74.7552V95.8612ZM71.3227 95.8612H69.6084V95.0964H71.3227V95.8612ZM67.8902 95.8612H66.1759V95.0964H67.8902V95.8612ZM64.4577 95.8612H62.7434V95.0964H64.4577V95.8612ZM61.0252 95.8612H59.3109V95.0964H61.0252V95.8612ZM57.5926 95.8612H55.8784V95.0964H57.5926V95.8612ZM54.1601 95.8612H52.4458V95.0964H54.1601V95.8612ZM50.7276 95.8612H49.0133V95.0964H50.7276V95.8612ZM47.2951 95.8612H46.9982C46.4676 95.8612 45.953 95.7553 45.466 95.5474L45.7748 94.8454C46.1628 95.0101 46.5745 95.0964 46.9982 95.0964H47.2951V95.8612V95.8612ZM83.4454 95.3984L83.0772 94.7277C83.5246 94.4845 83.9086 94.1355 84.1857 93.7119L84.8311 94.1315C84.4827 94.661 84.0036 95.0964 83.4454 95.3984ZM43.9695 94.41C43.5736 93.9158 43.3083 93.3236 43.1974 92.7039L43.9576 92.5705C44.0447 93.0647 44.2585 93.5354 44.5752 93.9315L43.9695 94.4061V94.41ZM85.4447 92.3627L84.6727 92.2999C84.6806 92.2136 84.6846 92.1273 84.6846 92.0411V90.633H85.4566V92.0411C85.4566 92.147 85.4526 92.2568 85.4447 92.3627ZM43.9101 90.9429H43.1381V89.2446H43.9101V90.9429ZM85.4566 88.9347H84.6846V87.2365H85.4566V88.9347ZM43.9101 87.5463H43.1381V85.848H43.9101V87.5463ZM85.4566 85.5382H84.6846V83.8399H85.4566V85.5382ZM43.9101 84.1498H43.1381V82.4515H43.9101V84.1498ZM85.4566 82.1416H84.6846V80.4434H85.4566V82.1416ZM43.9101 80.7532H43.1381V79.0549H43.9101V80.7532ZM85.4566 78.7451H84.6846V77.0468H85.4566V78.7451ZM43.9101 77.3567H43.1381V75.6584H43.9101V77.3567ZM85.4566 75.3485H84.6846V73.6503H85.4566V75.3485ZM43.9101 73.9601H43.1381V72.2618H43.9101V73.9601ZM85.4566 71.952H84.6846V70.2537H85.4566V71.952ZM43.9101 70.5636H43.1381V68.8653H43.9101V70.5636ZM85.4566 68.5554H84.6846V66.8572H85.4566V68.5554ZM43.9101 67.167H43.1381V65.7629C43.1381 65.6531 43.142 65.5433 43.1539 65.4334L43.9259 65.5001C43.918 65.5864 43.914 65.6766 43.914 65.7629V67.167H43.9101ZM84.6371 65.2295C84.55 64.7353 84.3362 64.2647 84.0155 63.8685L84.6212 63.3939C85.0171 63.8881 85.2864 64.4764 85.3972 65.1001L84.6371 65.2334V65.2295ZM44.4168 64.0921L43.7715 63.6724C44.1199 63.1468 44.6029 62.7076 45.1611 62.4095L45.5293 63.0841C45.082 63.3233 44.6979 63.6724 44.4168 64.096V64.0921ZM82.8199 62.9586C82.4358 62.7939 82.0241 62.7115 81.6005 62.7115H81.2956V61.9467H81.6005C82.131 61.9467 82.6417 62.0526 83.1247 62.2565L82.8199 62.9586V62.9586ZM79.5813 62.7115H77.867V61.9467H79.5813V62.7115ZM76.1488 62.7115H74.4345V61.9467H76.1488V62.7115ZM72.7163 62.7115H71.002V61.9467H72.7163V62.7115ZM69.2838 62.7115H67.5695V61.9467H69.2838V62.7115ZM65.8513 62.7115H64.137V61.9467H65.8513V62.7115ZM62.4187 62.7115H60.7045V61.9467H62.4187V62.7115ZM58.9862 62.7115H57.272V61.9467H58.9862V62.7115ZM55.5537 62.7115H53.8394V61.9467H55.5537V62.7115ZM52.1212 62.7115H50.4069V61.9467H52.1212V62.7115ZM48.6887 62.7115H46.9823L46.9744 61.9467H48.6887V62.7115Z" fill="white"/>
<path d="M48.2532 19.3447C51.5549 19.3447 54.2314 16.6931 54.2314 13.4223C54.2314 10.1515 51.5549 7.49991 48.2532 7.49991C44.9515 7.49991 42.275 10.1515 42.275 13.4223C42.275 16.6931 44.9515 19.3447 48.2532 19.3447Z" fill="white"/>
<path d="M48.2532 12.1045C48.8086 12.1045 49.2588 11.6585 49.2588 11.1083C49.2588 10.5581 48.8086 10.112 48.2532 10.112C47.6978 10.112 47.2476 10.5581 47.2476 11.1083C47.2476 11.6585 47.6978 12.1045 48.2532 12.1045Z" fill="#FFD14C"/>
<path d="M46.7012 13.5713C47.4693 12.5281 49.0371 12.5281 49.8051 13.5713C50.5851 14.6303 49.821 16.1207 48.4986 16.1207H48.0117C46.6893 16.1207 45.9252 14.6303 46.7052 13.5713H46.7012Z" fill="#FFD14C"/>
<path d="M81.4223 13.8067H60.3086C60.0948 13.8067 59.9206 13.6341 59.9206 13.4223C59.9206 13.2105 60.0948 13.0379 60.3086 13.0379H81.4223C81.6361 13.0379 81.8103 13.2105 81.8103 13.4223C81.8103 13.6341 81.6361 13.8067 81.4223 13.8067V13.8067Z" fill="white"/>
<path d="M75.1313 22.7059H52.6873C46.9346 22.7059 42.271 27.326 42.271 33.025V45.5562C42.271 51.2552 46.9346 55.8753 52.6873 55.8753H75.1313C80.8841 55.8753 85.5476 51.2552 85.5476 45.5562V33.025C85.5476 27.326 80.8841 22.7059 75.1313 22.7059Z" fill="white"/>
<path d="M82.6734 26.9928C82.8515 27.1693 82.8515 27.4517 82.6734 27.6243C82.5863 27.7106 82.4715 27.7576 82.3566 27.7576C82.2418 27.7576 82.127 27.7145 82.036 27.6243L81.3352 26.9301L80.6305 27.6243C80.5434 27.7106 80.4286 27.7576 80.3098 27.7576C80.191 27.7576 80.0802 27.7145 79.9931 27.6243C79.8149 27.4517 79.8149 27.1654 79.9931 26.9928L80.6978 26.2986L79.9931 25.6005C79.8149 25.424 79.8149 25.1416 79.9931 24.969C80.1673 24.7925 80.4563 24.7925 80.6305 24.969L81.3352 25.6671L82.036 24.969C82.2141 24.7925 82.4992 24.7925 82.6734 24.969C82.8515 25.1416 82.8515 25.4279 82.6734 25.6005L81.9726 26.2986L82.6734 26.9928Z" fill="#FFB400"/>
<path d="M128.777 26.679H101.598C100.731 26.679 100.022 25.9809 100.022 25.118V24.8866C100.022 24.0277 100.727 23.3256 101.598 23.3256H128.777C129.644 23.3256 130.352 24.0238 130.352 24.8866V25.118C130.352 25.977 129.648 26.679 128.777 26.679ZM101.598 24.0944C101.154 24.0944 100.798 24.4513 100.798 24.8866V25.118C100.798 25.5573 101.158 25.9103 101.598 25.9103H128.777C129.22 25.9103 129.577 25.5534 129.577 25.118V24.8866C129.577 24.4474 129.216 24.0944 128.777 24.0944H101.598Z" fill="white"/>
<path d="M118.4 35.947H101.625C100.691 35.947 99.9349 35.194 99.9349 34.2723C99.9349 33.3506 100.695 32.5975 101.625 32.5975H118.4C119.334 32.5975 120.091 33.3506 120.091 34.2723C120.091 35.194 119.33 35.947 118.4 35.947ZM101.625 33.3623C101.119 33.3623 100.707 33.7702 100.707 34.2723C100.707 34.7743 101.119 35.1822 101.625 35.1822H118.4C118.907 35.1822 119.319 34.7743 119.319 34.2723C119.319 33.7702 118.907 33.3623 118.4 33.3623H101.625Z" fill="white"/>
<path d="M128.567 45.2149H101.625C100.691 45.2149 99.9349 44.4619 99.9349 43.5402C99.9349 42.6185 100.695 41.8655 101.625 41.8655H128.567C129.501 41.8655 130.257 42.6185 130.257 43.5402C130.257 44.4619 129.497 45.2149 128.567 45.2149ZM101.625 42.6303C101.119 42.6303 100.707 43.0382 100.707 43.5402C100.707 44.0422 101.119 44.4501 101.625 44.4501H128.567C129.074 44.4501 129.485 44.0422 129.485 43.5402C129.485 43.0382 129.074 42.6303 128.567 42.6303H101.625Z" fill="white"/>
<path d="M123.998 35.947C123.064 35.947 122.308 35.194 122.308 34.2723C122.308 33.3506 123.068 32.5975 123.998 32.5975C124.929 32.5975 125.689 33.3506 125.689 34.2723C125.689 35.194 124.929 35.947 123.998 35.947ZM123.998 33.3623C123.491 33.3623 123.08 33.7702 123.08 34.2723C123.08 34.7743 123.491 35.1822 123.998 35.1822C124.505 35.1822 124.917 34.7743 124.917 34.2723C124.917 33.7702 124.505 33.3623 123.998 33.3623Z" fill="white"/>
<path d="M134.743 17.5719H95.6354C93.4064 17.5719 91.5971 15.7756 91.5971 13.5713C91.5971 11.3671 93.4104 9.57079 95.6354 9.57079H134.743C136.972 9.57079 138.781 11.3671 138.781 13.5713C138.781 15.7756 136.968 17.5719 134.743 17.5719V17.5719ZM95.6354 10.3356C93.834 10.3356 92.3691 11.7868 92.3691 13.5713C92.3691 15.3559 93.834 16.8071 95.6354 16.8071H134.743C136.544 16.8071 138.009 15.3559 138.009 13.5713C138.009 11.7868 136.544 10.3356 134.743 10.3356H95.6354Z" fill="white"/>
<path d="M134.842 16.1246C136.265 16.1246 137.419 14.9815 137.419 13.5713C137.419 12.1612 136.265 11.0181 134.842 11.0181C133.419 11.0181 132.265 12.1612 132.265 13.5713C132.265 14.9815 133.419 16.1246 134.842 16.1246Z" fill="white"/>
<path d="M136.315 14.8068L135.828 14.1675C136.046 13.9204 136.176 13.5949 136.176 13.238C136.176 12.4535 135.535 11.8182 134.743 11.8182C133.951 11.8182 133.31 12.4535 133.31 13.238C133.31 14.0224 133.951 14.6578 134.743 14.6578C134.941 14.6578 135.135 14.6185 135.305 14.544L135.8 15.1912C135.863 15.2735 135.959 15.3167 136.057 15.3167C136.125 15.3167 136.196 15.2971 136.251 15.25C136.394 15.1441 136.422 14.9441 136.315 14.8029V14.8068ZM133.955 13.238C133.955 12.8065 134.312 12.4575 134.743 12.4575C135.175 12.4575 135.531 12.8105 135.531 13.238C135.531 13.6655 135.179 14.0185 134.743 14.0185C134.308 14.0185 133.955 13.6655 133.955 13.238Z" fill="#FFD14C"/>
<path d="M96.4945 14.2577C96.8902 14.2577 97.2111 13.9399 97.2111 13.5478C97.2111 13.1557 96.8902 12.8379 96.4945 12.8379C96.0987 12.8379 95.7779 13.1557 95.7779 13.5478C95.7779 13.9399 96.0987 14.2577 96.4945 14.2577Z" fill="#FFD14C"/>
<path d="M98.7314 14.2577C99.1271 14.2577 99.448 13.9399 99.448 13.5478C99.448 13.1557 99.1271 12.8379 98.7314 12.8379C98.3356 12.8379 98.0148 13.1557 98.0148 13.5478C98.0148 13.9399 98.3356 14.2577 98.7314 14.2577Z" fill="#FFD14C"/>
<path d="M100.968 14.2577C101.364 14.2577 101.685 13.9399 101.685 13.5478C101.685 13.1557 101.364 12.8379 100.968 12.8379C100.572 12.8379 100.252 13.1557 100.252 13.5478C100.252 13.9399 100.572 14.2577 100.968 14.2577Z" fill="#FFD14C"/>
<path d="M100.497 112.173C100.196 112.173 99.8993 112.06 99.6697 111.836L97.9396 110.122L97.4526 110.604C97.1398 110.914 96.6687 111.008 96.2609 110.84C95.8492 110.671 95.5839 110.279 95.5839 109.836V105.91C95.5839 105.313 96.0748 104.823 96.6806 104.823H100.644C101.087 104.823 101.487 105.086 101.653 105.494C101.823 105.898 101.732 106.361 101.42 106.671L100.952 107.165L102.667 108.863C103.122 109.314 103.122 110.051 102.667 110.502L101.321 111.836C101.091 112.063 100.794 112.173 100.493 112.173H100.497ZM97.9435 109.043C98.0583 109.043 98.1731 109.087 98.2642 109.173L100.311 111.201C100.414 111.303 100.584 111.303 100.687 111.201L102.033 109.867C102.136 109.765 102.136 109.596 102.033 109.494L100.01 107.49C99.8359 107.318 99.832 107.043 100.002 106.867L100.774 106.051L100.782 106.039C100.861 105.961 100.842 105.874 100.826 105.831C100.81 105.788 100.758 105.714 100.648 105.714H96.6845C96.5776 105.714 96.4905 105.8 96.4905 105.906V109.832C96.4905 109.942 96.5658 109.989 96.6093 110.008C96.6529 110.028 96.74 110.044 96.8191 109.965L97.6228 109.169C97.7099 109.083 97.8247 109.039 97.9435 109.039V109.043Z" fill="#FFD14C"/>
<path d="M155.666 4.25129C155.844 4.42387 155.844 4.71018 155.666 4.88275C155.579 4.96904 155.464 5.01218 155.349 5.01218C155.235 5.01218 155.12 4.96904 155.029 4.88275L154.28 4.14147L153.528 4.88275C153.441 4.96904 153.326 5.01218 153.212 5.01218C153.097 5.01218 152.982 4.96904 152.891 4.88275C152.717 4.70626 152.717 4.42387 152.891 4.25129L153.639 3.50609L152.891 2.76481C152.717 2.58832 152.717 2.30592 152.891 2.13335C153.069 1.96078 153.354 1.96078 153.528 2.13335L154.28 2.87855L155.029 2.13335C155.207 1.96078 155.492 1.96078 155.666 2.13335C155.844 2.30985 155.844 2.59224 155.666 2.76481L154.918 3.50609L155.666 4.25129Z" fill="#FFD14C"/>
<path d="M13.1204 20.3056C13.2985 20.4821 13.2985 20.7645 13.1204 20.9371C13.0333 21.0234 12.9185 21.0665 12.8036 21.0665C12.6888 21.0665 12.574 21.0234 12.483 20.9371L11.7822 20.2389L11.0775 20.9371C10.9904 21.0234 10.8756 21.0665 10.7568 21.0665C10.638 21.0665 10.5272 21.0234 10.4401 20.9371C10.2619 20.7606 10.2619 20.4782 10.4401 20.3056L11.1448 19.6075L10.4401 18.9093C10.2619 18.7368 10.2619 18.4505 10.4401 18.2779C10.6143 18.1053 10.9033 18.1053 11.0775 18.2779L11.7822 18.976L12.483 18.2779C12.6611 18.1053 12.9462 18.1053 13.1204 18.2779C13.2946 18.4505 13.2985 18.7368 13.1204 18.9093L12.4157 19.6075L13.1204 20.3056V20.3056Z" fill="#B6DAFF"/>
<path d="M178.519 70.391C178.697 70.5675 178.697 70.8499 178.519 71.0224C178.431 71.1087 178.317 71.1558 178.202 71.1558C178.087 71.1558 177.972 71.1127 177.881 71.0224L177.18 70.3282L176.476 71.0224C176.389 71.1087 176.274 71.1558 176.155 71.1558C176.036 71.1558 175.925 71.1127 175.838 71.0224C175.66 70.8499 175.66 70.5636 175.838 70.391L176.543 69.6968L175.838 68.9986C175.66 68.8221 175.66 68.5397 175.838 68.3672C176.012 68.1907 176.301 68.1907 176.476 68.3672L177.18 69.0653L177.881 68.3672C178.059 68.1907 178.344 68.1907 178.519 68.3672C178.697 68.5397 178.697 68.8261 178.519 68.9986L177.818 69.6968L178.519 70.391Z" fill="#5798F7"/>
<path d="M62.6959 117.931C62.874 118.104 62.874 118.39 62.6959 118.562C62.6088 118.649 62.494 118.692 62.3792 118.692C62.2643 118.692 62.1456 118.649 62.0585 118.562L61.3538 117.864L60.649 118.562C60.5619 118.649 60.4471 118.692 60.3323 118.692C60.2175 118.692 60.1027 118.649 60.0156 118.562C59.8374 118.386 59.8374 118.104 60.0156 117.931L60.7203 117.233L60.0156 116.535C59.8414 116.358 59.8414 116.076 60.0156 115.903C60.1898 115.727 60.4788 115.731 60.653 115.903L61.3577 116.601L62.0624 115.903C62.2406 115.727 62.5256 115.727 62.6998 115.903C62.878 116.08 62.878 116.362 62.6998 116.535L61.9951 117.233L62.6998 117.931H62.6959Z" fill="#91E6F0"/>
<path d="M146.699 84.7891C146.549 84.7891 146.403 84.7145 146.319 84.5812L139.609 74.0542C139.474 73.8464 139.538 73.5679 139.751 73.4385C139.961 73.3051 140.242 73.3679 140.373 73.5797L147.084 84.1066C147.218 84.3145 147.155 84.593 146.941 84.7224C146.866 84.7695 146.783 84.793 146.699 84.793V84.7891Z" fill="#5798F7"/>
<path d="M134.123 60.7848L112.903 53.5423C107.464 51.6859 101.536 54.549 99.6621 59.9373L95.5418 71.785C93.6679 77.1733 96.5581 83.0462 101.997 84.9026L123.217 92.1451C128.656 94.0015 134.584 91.1383 136.458 85.7501L140.578 73.9023C142.452 68.5141 139.562 62.6411 134.123 60.7848Z" fill="#FFD14C"/>
<path d="M93.7966 76.988L93.5384 77.7088L134.274 92.0311L134.532 91.3103L93.7966 76.988Z" fill="white"/>
<path d="M122.26 108.443H117.885L107.251 93.6844L122.26 108.443Z" fill="#83B7FF"/>
<path d="M139.601 66.108L138.718 66.563L139.177 67.4376C139.292 67.6573 139.205 67.9279 138.983 68.0416C138.916 68.0769 138.845 68.0926 138.777 68.0926C138.615 68.0926 138.457 68.0063 138.378 67.8495L137.918 66.9748L137.035 67.4298C136.968 67.4651 136.901 67.4808 136.83 67.4808C136.667 67.4808 136.509 67.3945 136.43 67.2376C136.315 67.018 136.402 66.7513 136.624 66.6336L137.507 66.1786L137.047 65.304C136.932 65.0844 137.02 64.8177 137.241 64.7C137.463 64.5863 137.736 64.6725 137.851 64.8922L138.31 65.7668L139.193 65.3119C139.415 65.1981 139.688 65.2844 139.803 65.504C139.918 65.7237 139.831 65.9943 139.609 66.108H139.601Z" fill="#91E6F0"/>
<path d="M127.93 90.4291C128.5 90.4291 128.963 89.9708 128.963 89.4054C128.963 88.84 128.5 88.3817 127.93 88.3817C127.359 88.3817 126.896 88.84 126.896 89.4054C126.896 89.9708 127.359 90.4291 127.93 90.4291Z" fill="#FFB900"/>
<path d="M127.93 90.8134C127.146 90.8134 126.512 90.182 126.512 89.4093C126.512 88.6367 127.15 88.0052 127.93 88.0052C128.709 88.0052 129.347 88.6367 129.347 89.4093C129.347 90.182 128.709 90.8134 127.93 90.8134ZM127.93 88.77C127.573 88.77 127.284 89.0563 127.284 89.4093C127.284 89.7623 127.573 90.0486 127.93 90.0486C128.286 90.0486 128.575 89.7623 128.575 89.4093C128.575 89.0563 128.286 88.77 127.93 88.77Z" fill="white"/>
<path d="M129.07 58.656L128.306 56.0478C128.092 55.3144 127.545 54.7222 126.825 54.4437C126.017 54.1299 125.107 54.2554 124.414 54.7771L122.545 56.1851C121.619 56.8832 121.833 58.3148 122.921 58.7227C123.262 58.8482 123.634 58.8482 123.974 58.7188L126.488 57.7539L129.066 58.66L129.07 58.656Z" fill="white"/>
<path d="M129.751 59.3699L126.5 58.2285L124.141 59.1306C123.697 59.2993 123.21 59.3032 122.767 59.1385C122.098 58.8914 121.639 58.3227 121.536 57.6245C121.433 56.9264 121.71 56.2518 122.276 55.8243L124.145 54.4162C124.952 53.8083 126.045 53.6553 126.991 54.024C127.835 54.3496 128.488 55.0595 128.741 55.9223L129.751 59.3699V59.3699ZM125.926 54.7222C125.487 54.7222 125.051 54.8634 124.691 55.1301L122.822 56.5381C122.521 56.7656 122.371 57.1225 122.426 57.4951C122.482 57.8677 122.727 58.1697 123.08 58.2991C123.317 58.3854 123.575 58.3854 123.812 58.2991L126.484 57.2755L128.393 57.9461L127.874 56.1733C127.7 55.5772 127.249 55.0869 126.663 54.8594C126.425 54.7692 126.176 54.7222 125.926 54.7222V54.7222Z" fill="#5798F7"/>
<path d="M132.954 59.864L132.665 57.8128C132.514 56.7577 131.778 55.8792 130.76 55.538C129.707 55.185 128.543 55.4752 127.779 56.2753L126.12 58.0246C125.257 58.9345 125.606 60.4249 126.785 60.8642C127.399 61.0917 128.088 60.9662 128.579 60.5347L130.376 58.958L132.954 59.864Z" fill="white"/>
<path d="M127.407 61.4211C127.146 61.4211 126.88 61.374 126.627 61.2799C125.93 61.0211 125.416 60.4367 125.245 59.7189C125.075 59.0012 125.281 58.252 125.792 57.7147L127.45 55.9655C128.329 55.0398 129.687 54.7025 130.903 55.1104C132.091 55.5066 132.934 56.5185 133.108 57.7461L133.504 60.5269L130.475 59.4601L128.876 60.8603C128.464 61.2211 127.937 61.4133 127.407 61.4133V61.4211ZM129.85 55.836C129.2 55.836 128.563 56.0988 128.104 56.5812L126.445 58.3305C126.136 58.6521 126.021 59.0875 126.12 59.5189C126.219 59.9503 126.52 60.2876 126.94 60.4445C127.399 60.6132 127.91 60.523 128.274 60.2013L130.269 58.4521L132.399 59.2012L132.213 57.8794C132.087 56.9852 131.473 56.2518 130.61 55.9655C130.36 55.8831 130.103 55.84 129.846 55.84L129.85 55.836Z" fill="#5798F7"/>
<path d="M136.612 61.2642L136.323 59.213C136.172 58.1579 135.436 57.2794 134.418 56.9381C133.365 56.5852 132.201 56.8754 131.437 57.6755L129.778 59.4248C128.915 60.3347 129.264 61.8251 130.444 62.2644C131.057 62.4919 131.746 62.3663 132.237 61.9349L134.034 60.3582L136.612 61.2642Z" fill="white"/>
<path d="M131.065 62.8213C130.804 62.8213 130.539 62.7742 130.281 62.6801C129.584 62.4213 129.07 61.8369 128.899 61.1191C128.729 60.4014 128.935 59.6522 129.446 59.1149L131.105 57.3656C131.984 56.44 133.342 56.1027 134.557 56.5106C135.745 56.9068 136.588 57.9187 136.762 59.1463L137.158 61.9271L134.129 60.8603L132.53 62.2604C132.118 62.6213 131.592 62.8135 131.061 62.8135L131.065 62.8213ZM133.508 57.2362C132.859 57.2362 132.221 57.499 131.762 57.9814L130.103 59.7307C129.798 60.0523 129.679 60.4876 129.778 60.9191C129.881 61.3505 130.178 61.6878 130.598 61.8447C131.057 62.0134 131.568 61.9231 131.932 61.6015L133.928 59.8523L136.058 60.6014L135.871 59.2796C135.745 58.3854 135.131 57.652 134.268 57.3656C134.019 57.2833 133.761 57.2401 133.504 57.2401L133.508 57.2362Z" fill="#5798F7"/>
<path d="M123.317 58.2756C123.8 58.2756 124.192 57.8875 124.192 57.4088C124.192 56.9301 123.8 56.542 123.317 56.542C122.834 56.542 122.442 56.9301 122.442 57.4088C122.442 57.8875 122.834 58.2756 123.317 58.2756Z" fill="#FFD14C"/>
<path d="M127.209 60.3033C127.71 60.3033 128.116 59.9012 128.116 59.4051C128.116 58.9091 127.71 58.507 127.209 58.507C126.708 58.507 126.302 58.9091 126.302 59.4051C126.302 59.9012 126.708 60.3033 127.209 60.3033Z" fill="#FFD14C"/>
<path d="M130.875 61.731C131.395 61.731 131.817 61.313 131.817 60.7975C131.817 60.282 131.395 59.864 130.875 59.864C130.355 59.864 129.933 60.282 129.933 60.7975C129.933 61.313 130.355 61.731 130.875 61.731Z" fill="#FFD14C"/>
<path d="M182.014 118.696H150.813L150.14 109.326L142.776 114.495C137.942 117.888 131.342 117.35 127.138 113.217L107.251 93.6844L95.5958 89.3975C94.5427 89.0093 93.735 88.1503 93.4262 87.0796C92.9709 85.5107 92.3058 83.2281 91.9138 81.8906C91.8901 81.8043 91.8782 81.7181 91.8782 81.6357C91.8782 81.169 92.2424 80.7532 92.7413 80.7179C93.8419 80.6395 94.7762 81.5023 94.7762 82.5966C94.7762 82.1612 94.7762 81.6945 94.7762 81.3219C94.7762 80.9179 95.1088 80.5963 95.5126 80.5963H95.5324C97.1398 80.6355 98.4265 81.9338 98.4423 83.5261V83.5536L104.124 85.2636C104.666 85.4284 105.058 84.7577 104.65 84.3694L101.507 81.4121C100.762 80.7101 101.459 79.4903 102.449 79.7648L107.354 81.1101C108.249 81.3572 109.088 81.7769 109.821 82.3456L133.349 98.1635L156.249 74.4543C157.06 73.7248 157.995 73.16 158.996 72.7756C160.002 72.3913 161.075 72.1873 162.172 72.1873C165.968 72.1873 168.561 74.5837 169.484 77.086L182.01 118.696H182.014Z" fill="white"/>
<path d="M150.603 109.432L158.296 103.18L151.221 118.696L150.603 109.432Z" fill="#B6DAFF"/>
<path d="M150.813 119.143C150.579 119.143 150.381 118.962 150.362 118.727L149.744 110.161L143.196 114.852C140.769 116.59 137.788 117.421 134.802 117.194C131.817 116.962 129.002 115.687 126.876 113.597L106.998 94.0688L95.4335 89.8133C94.2497 89.3779 93.3351 88.4013 92.9867 87.2012C92.6581 86.0638 92.2187 84.5577 91.8505 83.3026L91.4744 82.0161C91.4387 81.8906 91.419 81.7651 91.419 81.6357C91.419 80.9219 91.9811 80.3257 92.7017 80.2747C93.351 80.2277 93.9963 80.4551 94.4714 80.8944C94.9465 81.3337 95.2197 81.9534 95.2236 82.6005C95.2236 82.8476 95.0217 83.0477 94.7723 83.0477C94.5229 83.0477 94.321 82.8476 94.321 82.6005C94.321 82.1966 94.1547 81.824 93.8577 81.5494C93.5608 81.2749 93.1728 81.1415 92.765 81.169C92.5156 81.1886 92.3216 81.3925 92.3216 81.6396C92.3216 81.6828 92.3295 81.7259 92.3414 81.773L92.7175 83.0633C93.0818 84.3184 93.5212 85.8284 93.8538 86.9619C94.123 87.8915 94.8317 88.6484 95.7462 88.9818L107.493 93.304L107.56 93.3707L127.51 112.966C131.611 116.994 137.986 117.484 142.665 114.13L150.528 108.498L151.26 118.668C151.276 118.915 151.09 119.127 150.841 119.147C150.829 119.147 150.821 119.147 150.809 119.147L150.813 119.143Z" fill="#5798F7"/>
<path d="M133.413 98.74L133.096 98.5282L109.555 82.7025L109.544 82.6907C108.855 82.1534 108.079 81.7651 107.235 81.5337L102.33 80.1884C102.033 80.1061 101.823 80.263 101.72 80.4394C101.621 80.612 101.594 80.8748 101.815 81.0866L104.959 84.0439C105.299 84.3616 105.367 84.844 105.133 85.244C104.9 85.6441 104.44 85.8206 103.993 85.6872L97.991 83.8831V83.5261C97.9791 82.1691 96.8944 81.0787 95.5206 81.0434H95.5126C95.3582 81.0434 95.2276 81.169 95.2276 81.3258V86.8599C95.2276 87.9621 95.8887 88.9426 96.9181 89.3623C97.1477 89.4564 97.2586 89.7192 97.1636 89.9467C97.0685 90.1741 96.8072 90.2839 96.5737 90.1898C95.2078 89.6329 94.3249 88.3268 94.3249 86.8639V81.3298C94.3249 80.6826 94.8594 80.1571 95.5126 80.1571H95.5324C97.3021 80.2002 98.7116 81.5259 98.8778 83.2241L104.258 84.8401C104.278 84.8479 104.322 84.8597 104.357 84.8008C104.393 84.742 104.357 84.7106 104.341 84.6989L101.198 81.7416C100.711 81.2827 100.608 80.5846 100.937 80.008C101.269 79.4315 101.922 79.1608 102.572 79.3373L107.477 80.6826C108.431 80.9454 109.31 81.3847 110.09 81.9887L133.29 97.5869L155.936 74.1405L155.948 74.1288C157.535 72.7011 159.685 71.9481 162.172 71.9481C162.421 71.9481 162.623 72.1481 162.623 72.3952C162.623 72.6423 162.421 72.8423 162.172 72.8423C159.919 72.8423 157.979 73.513 156.565 74.7798L133.413 98.7479V98.74Z" fill="#5798F7"/>
<path d="M98.4463 85.801C98.1969 85.801 97.995 85.601 97.995 85.3539V83.5497C97.995 83.3026 98.1969 83.1026 98.4463 83.1026C98.6957 83.1026 98.8976 83.3026 98.8976 83.5497V85.3539C98.8976 85.601 98.6957 85.801 98.4463 85.801Z" fill="#5798F7"/>
<path d="M135.06 99.8814C134.969 99.8814 134.874 99.8539 134.795 99.7951L132.352 98.034C132.15 97.8889 132.106 97.6105 132.253 97.4104C132.399 97.2104 132.68 97.1673 132.882 97.3124L135.325 99.0734C135.527 99.2185 135.571 99.497 135.424 99.697C135.337 99.8186 135.198 99.8814 135.06 99.8814V99.8814Z" fill="#5798F7"/>
<path d="M150.14 109.773C150.009 109.773 149.883 109.718 149.792 109.612C149.633 109.42 149.661 109.141 149.851 108.985L157.749 102.529C157.939 102.372 158.224 102.399 158.383 102.588C158.541 102.78 158.513 103.058 158.323 103.215L150.425 109.671C150.342 109.742 150.239 109.773 150.14 109.773V109.773Z" fill="#5798F7"/>
<path d="M95.2315 81.2435C95.8175 81.2435 96.2926 81.671 96.2926 82.1966C96.2926 82.7221 95.8175 83.1496 95.2315 83.1496V81.2435Z" fill="#FFB400"/>
<path d="M92.2979 81.6592C92.8126 81.5102 93.351 81.8004 93.5014 82.3064C93.6519 82.8123 93.351 83.3418 92.8363 83.4909L92.3018 81.6631L92.2979 81.6592Z" fill="#FFB400"/>
<path d="M104.037 80.6159C103.878 81.1768 103.336 81.5141 102.825 81.3729C102.314 81.2317 102.025 80.663 102.184 80.1021L104.037 80.6159Z" fill="#FFB400"/>
<path d="M115.217 88.2366L114.682 88.8092C114.437 88.5857 114.1 88.468 113.748 88.4837C113.396 88.4994 113.067 88.6445 112.841 88.8877C112.612 89.1348 112.493 89.4525 112.509 89.7858C112.525 90.1192 112.667 90.4291 112.913 90.6566L112.378 91.2331C112.129 91.0056 111.812 90.888 111.472 90.9036C111.135 90.9193 110.822 91.0605 110.593 91.3037C110.363 91.5508 110.244 91.8685 110.26 92.2019C110.272 92.5352 110.419 92.8451 110.664 93.0726L110.13 93.6491C109.88 93.4216 109.54 93.2961 109.191 93.3079C108.625 93.3707 108.352 93.6805 108.13 93.9158L107.532 93.3236C107.897 92.9628 108.415 92.5352 109.175 92.5235C109.29 92.5235 109.401 92.5235 109.512 92.5431C109.393 91.9312 109.559 91.2684 110.019 90.7781C110.478 90.284 111.131 90.0682 111.761 90.1388C111.741 90.0369 111.729 89.931 111.725 89.8251C111.701 89.2838 111.895 88.7622 112.267 88.366C112.636 87.9738 113.162 87.7346 113.72 87.711H113.756C113.863 87.7071 113.97 87.711 114.073 87.7228C113.954 87.1345 114.1 86.503 114.516 86.0128L115.181 86.4481C114.714 86.9541 114.718 87.7738 115.229 88.2405L115.217 88.2366Z" fill="#FFD14C"/>
<path d="M169.587 61.6368V61.8761C169.587 63.0606 168.617 64.0215 167.421 64.0215H166.226L168.146 71.0617H158.624L158.882 65.857C157.425 65.857 156.356 64.6725 156.356 63.3586C156.356 63.0174 156.427 62.6644 156.585 62.3232L159.25 56.5185C159.539 55.887 160.176 55.483 160.873 55.483C162.053 55.483 163.122 56.1576 163.898 57.1264C164.674 58.0952 165.149 59.3542 165.149 60.5269V61.5702L165.378 60.9269C165.683 60.068 166.503 59.4914 167.421 59.4914C168.019 59.4914 168.561 59.7307 168.953 60.119C169.345 60.5073 169.587 61.0446 169.587 61.6368V61.6368Z" fill="white"/>
<path d="M158.525 73.4934C158.525 73.4934 158.509 73.4934 158.501 73.4934C158.252 73.4816 158.062 73.2698 158.074 73.0266L158.406 66.2688C157.579 66.1394 156.843 65.6688 156.379 64.9549C155.829 64.1078 155.754 63.0566 156.174 62.1428L158.838 56.3381C158.941 56.1145 159.21 56.0125 159.436 56.1145C159.661 56.2165 159.764 56.4832 159.661 56.7067L156.997 62.5115C156.704 63.1508 156.759 63.8803 157.14 64.4725C157.524 65.0608 158.173 65.4138 158.882 65.4138H159.357L158.981 73.0737C158.969 73.313 158.771 73.4973 158.529 73.4973L158.525 73.4934Z" fill="#5798F7"/>
<path d="M156.601 61.3034L155.948 60.7818C155.746 60.6328 155.671 60.3739 155.754 60.1425C155.837 59.9072 156.059 59.7542 156.312 59.766C156.874 59.7856 157.401 59.464 157.638 58.9541L156.605 61.3074L156.601 61.3034Z" fill="#5798F7"/>
<path d="M158.941 65.4413L162.152 65.1511L158.743 68.6261L158.941 65.4413Z" fill="#5798F7"/>
<path d="M162.013 63.7587C162.886 63.7587 163.593 63.0581 163.593 62.1938C163.593 61.3295 162.886 60.6289 162.013 60.6289C161.141 60.6289 160.434 61.3295 160.434 62.1938C160.434 63.0581 161.141 63.7587 162.013 63.7587Z" fill="#B6DAFF"/>
<path d="M167.679 62.5861H166.804C166.654 62.5861 166.515 62.5116 166.436 62.3861C166.357 62.2606 166.349 62.1037 166.412 61.9704L166.828 61.1193C166.931 60.9075 167.192 60.8173 167.406 60.9192C167.62 61.0212 167.711 61.2801 167.608 61.4919L167.493 61.7272H167.675C167.913 61.7272 168.107 61.9194 168.107 62.1547C168.107 62.39 167.913 62.5822 167.675 62.5822L167.679 62.5861Z" fill="#5798F7"/>
<path d="M159.551 59.8836C159.789 59.8836 159.982 59.6922 159.982 59.4561C159.982 59.22 159.789 59.0286 159.551 59.0286C159.312 59.0286 159.119 59.22 159.119 59.4561C159.119 59.6922 159.312 59.8836 159.551 59.8836Z" fill="#5798F7"/>
<path d="M157.809 62.4369C157.781 62.4369 157.749 62.4369 157.722 62.4369C157.353 62.4134 157.001 62.2526 156.736 61.982C156.562 61.8055 156.566 61.5231 156.748 61.3505C156.926 61.1779 157.211 61.1819 157.385 61.3623C157.492 61.4721 157.634 61.5388 157.777 61.5466C157.908 61.5545 158.022 61.5152 158.11 61.4329C158.288 61.2603 158.573 61.2642 158.747 61.4447C158.921 61.6212 158.917 61.9035 158.735 62.0761C158.486 62.3154 158.161 62.4409 157.809 62.4409V62.4369Z" fill="#5798F7"/>
<path d="M178.198 46.2896C178.198 47.7447 177.299 49.1802 175.676 49.6626C175.031 49.8548 174.381 49.8587 173.787 49.7097C174.029 50.196 174.148 50.7216 174.148 51.2472C174.148 52.7023 173.249 54.1378 171.626 54.6241C169.294 55.3183 166.966 53.5298 167.065 51.1217C167.148 49.1057 168.835 47.7486 170.62 47.7486C170.905 47.7486 171.19 47.7839 171.475 47.8545C171.226 47.3525 171.095 46.7799 171.119 46.1641C171.202 44.1481 172.889 42.7911 174.674 42.7911C175.411 42.7911 176.167 43.0225 176.832 43.5324C177.766 44.2501 178.206 45.2777 178.206 46.2896H178.198Z" fill="#FFD14C"/>
<path d="M170.03 59.3934C170.03 60.1347 169.868 60.8407 169.579 61.48C169.543 60.9505 169.31 60.472 168.949 60.119C168.558 59.7307 168.015 59.4915 167.417 59.4915C166.499 59.4915 165.679 60.068 165.374 60.9269L165.268 61.229L165.149 61.5663L164.777 61.2329C165.014 60.4837 164.606 59.6797 163.858 59.4209L157.14 57.1225L157.765 55.636C158.636 53.5573 161.008 52.5375 163.138 53.3181L166.562 54.5378C168.589 55.2713 170.034 57.1696 170.034 59.3934H170.03Z" fill="#FFD14C"/>
<path d="M160.568 58.6796C160.525 58.6796 160.485 58.6717 160.445 58.6521C160.303 58.5854 160.243 58.4129 160.311 58.2717L161.289 56.2557C161.356 56.1145 161.53 56.0557 161.673 56.1223C161.815 56.189 161.875 56.3616 161.807 56.5028L160.829 58.5188C160.782 58.6207 160.679 58.6796 160.572 58.6796H160.568Z" fill="#FFD14C"/>
<path d="M161.748 59.2836C161.704 59.2836 161.665 59.2757 161.625 59.2561C161.483 59.1894 161.423 59.0169 161.491 58.8757L162.037 57.75C162.104 57.6088 162.278 57.55 162.421 57.6167C162.563 57.6833 162.623 57.8559 162.556 57.9971L162.009 59.1228C161.962 59.2247 161.859 59.2836 161.752 59.2836H161.748Z" fill="#FFD14C"/>
<path d="M167.489 70.038C166.966 70.0929 166.523 70.5322 166.523 71.0617H165.806C165.806 70.493 165.299 69.9988 164.725 69.9988C164.151 69.9988 163.68 70.4616 163.68 71.0342H162.963C162.963 70.4655 162.496 69.9988 161.918 69.9988C161.34 69.9988 160.873 70.4616 160.873 71.0342H160.156C160.156 70.4459 159.717 69.9831 159.135 69.9556L159.171 69.2457C159.741 69.2732 160.228 69.5438 160.533 69.9635C160.853 69.5556 161.356 69.2889 161.922 69.2889C162.488 69.2889 163.003 69.5595 163.324 69.9792C163.644 69.5595 164.155 69.2889 164.725 69.2889C165.295 69.2889 165.834 69.5752 166.162 70.0145C166.424 69.6693 166.839 69.4183 167.287 69.3399L167.485 70.038H167.489Z" fill="#FFD14C"/>
<path d="M182.014 119.143C181.816 119.143 181.638 119.013 181.583 118.817L165.628 63.5744H167.425C168.371 63.5744 169.14 62.8135 169.14 61.8761V61.6368C169.14 60.6995 168.371 59.9386 167.425 59.9386C166.697 59.9386 166.047 60.3935 165.806 61.076L165.671 61.4525C165.588 61.6839 165.331 61.8094 165.097 61.727C164.864 61.6447 164.737 61.3897 164.82 61.1583L164.955 60.7818C165.323 59.7464 166.313 59.0482 167.425 59.0482C168.866 59.0482 170.042 60.2092 170.042 61.6408V61.88C170.042 63.3077 168.87 64.4725 167.425 64.4725H166.827L182.454 118.574C182.521 118.809 182.383 119.06 182.145 119.127C182.106 119.139 182.062 119.143 182.022 119.143H182.014Z" fill="#5798F7"/>
<path d="M71.1564 93.9197L61.9872 108.447H57.3749L71.1564 93.9197Z" fill="#83B7FF"/>
<path d="M71.5286 93.9198L53.9859 112.071C47.7108 118.613 41.1387 119.045 34.7329 113.307H0.823487L16.5806 36.2765C16.9488 34.4841 17.7525 32.8054 18.9283 31.3934L28.727 19.6075V52.0787L32.2783 57.8089L43.9022 92.4176L61.6665 81.9691L71.5286 93.9237V93.9198Z" fill="white"/>
<path d="M27.9788 41.234L28.3707 40.8065V18.2583L25.8013 21.6627L27.9788 41.234Z" fill="#83B7FF"/>
<path d="M33.8065 113.307H24.7363L16.8617 96.4338L33.8065 113.307Z" fill="#83B7FF"/>
<path d="M65.6929 98.387C62.8344 98.387 60.1383 97.1829 58.1588 94.9826C55.8823 92.4529 55.0113 89.1269 55.7794 85.848C55.8269 85.6402 56.0367 85.5147 56.2426 85.5617C56.4524 85.6088 56.5791 85.8167 56.5316 86.0206C55.8229 89.0524 56.6266 92.1313 58.7368 94.4688C60.8153 96.775 63.7411 97.9007 66.7658 97.5555C66.9756 97.532 67.1696 97.6811 67.1934 97.8928C67.2171 98.1046 67.0667 98.2929 66.8529 98.3164C66.4649 98.3596 66.0769 98.3831 65.6929 98.3831V98.387Z" fill="#B6DAFF"/>
<path d="M65.4158 96.9241C64.6794 96.9241 64.0776 96.3279 64.0776 95.5984C64.0776 94.8689 64.6794 94.2727 65.4158 94.2727C66.1521 94.2727 66.7539 94.8689 66.7539 95.5984C66.7539 96.3279 66.1521 96.9241 65.4158 96.9241ZM65.4158 95.0375C65.103 95.0375 64.8496 95.2886 64.8496 95.5984C64.8496 95.9083 65.103 96.1593 65.4158 96.1593C65.7285 96.1593 65.9819 95.9083 65.9819 95.5984C65.9819 95.2886 65.7285 95.0375 65.4158 95.0375Z" fill="#B6DAFF"/>
<path d="M37.3459 96.4142C37.1915 96.4142 37.0411 96.3358 36.958 96.1946C36.8313 95.9828 36.9025 95.7082 37.1163 95.5827L61.0648 81.5847C61.2785 81.4592 61.5557 81.5298 61.6824 81.7416C61.8091 81.9534 61.7378 82.2279 61.524 82.3534L37.5756 96.3514C37.5043 96.3946 37.4251 96.4142 37.3459 96.4142V96.4142Z" fill="#5798F7"/>
<path d="M42.1562 93.6138H36.7679C36.5185 93.6138 36.3166 93.4138 36.3166 93.1667C36.3166 92.9196 36.5185 92.7196 36.7679 92.7196H42.1562C42.4056 92.7196 42.6075 92.9196 42.6075 93.1667C42.6075 93.4138 42.4056 93.6138 42.1562 93.6138Z" fill="#5798F7"/>
<path d="M43.6725 117.762C39.9668 117.762 36.3601 116.025 32.9553 112.593L16.541 96.0652C16.3668 95.8887 16.3668 95.6063 16.545 95.4337C16.7231 95.2611 17.0082 95.2611 17.1824 95.4376L33.5967 111.965C36.855 115.248 40.2757 116.895 43.7636 116.868C47.2634 116.837 50.6722 115.119 53.8909 111.761L66.94 98.3321C67.1142 98.1556 67.3993 98.1478 67.5774 98.3204C67.7556 98.4929 67.7635 98.7753 67.5893 98.9518L54.5442 112.381C51.1512 115.919 47.5247 117.731 43.7715 117.762C43.7398 117.762 43.7042 117.762 43.6686 117.762H43.6725Z" fill="#5798F7"/>
<path d="M0.451334 113.754C0.423621 113.754 0.391948 113.754 0.364235 113.746C0.118772 113.699 -0.0395907 113.464 0.0118772 113.22L15.5631 36.1902C15.9432 34.3311 16.7865 32.574 18.0059 31.111L27.5947 19.329C27.7531 19.1368 28.0342 19.1055 28.2282 19.2623C28.4222 19.4153 28.4539 19.6977 28.2955 19.8899L18.7027 31.6758C17.5783 33.0289 16.7983 34.6527 16.446 36.3667L0.89475 113.393C0.851201 113.605 0.665124 113.754 0.451334 113.754V113.754Z" fill="#5798F7"/>
<path d="M64.1291 2.34233L66.3778 0.428336C67.3082 -0.363931 68.7453 -0.0305512 69.2244 1.08725L70.0558 3.02478C70.5586 4.19749 69.6916 5.49571 68.4049 5.49571C67.7635 5.49571 67.1736 5.1584 66.8529 4.60931L65.5306 2.34233H64.133H64.1291Z" fill="#FFD14C"/>
<path d="M60.0591 2.34233L62.3079 0.428336C63.2383 -0.363931 64.6754 -0.0305512 65.1545 1.08725L65.9859 3.02478C66.4887 4.19749 65.6216 5.49571 64.3349 5.49571C63.6936 5.49571 63.1037 5.1584 62.783 4.60931L61.4607 2.34233H60.0631H60.0591Z" fill="#FFD14C"/>
<path d="M55.9932 2.34233L58.2419 0.428336C59.1723 -0.363931 60.6094 -0.0305512 61.0885 1.08725L61.9199 3.02478C62.4227 4.19749 61.5557 5.49571 60.269 5.49571C59.6276 5.49571 59.0377 5.1584 58.717 4.60931L57.9569 3.30717C57.6085 2.71101 56.9671 2.34625 56.2743 2.34625H56.0011L55.9932 2.34233Z" fill="#FFD14C"/>
<path d="M66.4095 3.63663C66.2709 3.63663 66.1363 3.55427 66.0809 3.42091L65.2495 1.48339C65.1703 1.30297 65.2574 1.0951 65.4395 1.01666C65.6216 0.938217 65.8315 1.0245 65.9106 1.20492L66.742 3.14244C66.8212 3.32286 66.7341 3.53073 66.552 3.60918C66.5045 3.62879 66.457 3.63663 66.4134 3.63663H66.4095Z" fill="#5798F7"/>
<path d="M62.2921 4.13081C62.1376 4.13081 61.9991 4.03276 61.9516 3.8798L61.1835 1.44809C61.1241 1.25983 61.231 1.0598 61.4171 1.00097C61.6071 0.942136 61.809 1.04803 61.8684 1.23237L62.6365 3.66408C62.6959 3.85234 62.589 4.05237 62.4029 4.1112C62.3673 4.12297 62.3316 4.12689 62.296 4.12689L62.2921 4.13081Z" fill="#5798F7"/>
<path d="M59.5959 5.23293C59.4376 5.23293 59.295 5.12703 59.2515 4.97015L59.0852 4.36614C58.9862 4.00139 59.0337 3.62487 59.2238 3.29541C59.4138 2.96987 59.7187 2.73455 60.0869 2.63649C60.843 2.43254 61.6269 2.87966 61.8328 3.62879L61.9872 4.19357C62.0387 4.38183 61.9278 4.57794 61.7338 4.62893C61.5438 4.67991 61.3458 4.57009 61.2944 4.37791L61.14 3.81313C61.037 3.44053 60.649 3.22089 60.2769 3.32286C60.0948 3.36993 59.9443 3.48759 59.8493 3.6484C59.7543 3.8092 59.7305 3.99747 59.782 4.17788L59.9483 4.78189C59.9998 4.97015 59.8889 5.16626 59.6949 5.21724C59.6632 5.22509 59.6316 5.22901 59.5999 5.22901L59.5959 5.23293Z" fill="#5798F7"/>
<path d="M63.6104 5.23293C63.4521 5.23293 63.3095 5.12704 63.266 4.97015L63.0997 4.36615C63.0007 4.00139 63.0482 3.62487 63.2383 3.29541C63.4283 2.96988 63.7332 2.73455 64.1014 2.6365C64.4695 2.53844 64.8496 2.58551 65.1822 2.77377C65.5108 2.96203 65.7483 3.26403 65.8473 3.62879L66.0017 4.19357C66.0532 4.38184 65.9423 4.57794 65.7483 4.62893C65.5583 4.67992 65.3603 4.5701 65.3089 4.37791L65.1545 3.81313C65.0515 3.44053 64.6635 3.22089 64.2914 3.32287C64.1093 3.36993 63.9588 3.48759 63.8638 3.6484C63.7688 3.80921 63.745 3.99747 63.7965 4.17789L63.9628 4.78189C64.0143 4.97015 63.9034 5.16626 63.7094 5.21725C63.6777 5.22509 63.6461 5.22901 63.6144 5.22901L63.6104 5.23293Z" fill="#5798F7"/>
<path d="M67.6883 5.23293C67.5299 5.23293 67.3874 5.12703 67.3438 4.97015L67.1775 4.36614C67.0786 4.00139 67.1261 3.62487 67.3161 3.29541C67.5062 2.96987 67.811 2.73455 68.1792 2.63649C68.9354 2.43254 69.7193 2.87966 69.9251 3.62879L70.0795 4.19357C70.131 4.38183 70.0202 4.57794 69.8262 4.62893C69.6361 4.67991 69.4382 4.57009 69.3867 4.37791L69.2323 3.81313C69.1294 3.44053 68.7414 3.22089 68.3692 3.32286C68.1871 3.36993 68.0367 3.48759 67.9416 3.6484C67.8466 3.8092 67.8229 3.99747 67.8743 4.17788L68.0406 4.78189C68.0921 4.97015 67.9812 5.16626 67.7872 5.21724C67.7556 5.22509 67.7239 5.22901 67.6922 5.22901L67.6883 5.23293Z" fill="#5798F7"/>
<path d="M62.391 78.3019C63.1987 76.635 65.107 75.7878 66.9004 76.2977L68.7968 76.835L73.7417 73.7601C74.2524 73.4424 74.9136 73.5248 75.3293 73.9523L75.3491 73.9758C75.844 74.4857 75.84 75.2897 75.3412 75.7878C73.611 77.5292 69.9687 81.2003 69.8539 81.3141C69.9212 81.2592 70.9664 80.3649 71.8176 79.6393C72.4352 79.1138 73.3616 79.1569 73.9278 79.7413L73.999 79.8158C74.5573 80.3963 74.5652 81.3102 74.0109 81.8985L72.0987 83.9341L73.908 82.0083C74.5018 81.3768 75.5035 81.3611 76.1171 81.973L76.2517 82.1063C76.8337 82.6829 76.8456 83.6124 76.2913 84.2047C76.8694 83.632 77.8037 83.6124 78.4094 84.1576C78.742 84.4557 78.9083 84.8675 78.9083 85.2754C78.9083 85.6519 78.7697 86.0285 78.4847 86.3265L71.1485 93.9158L69.264 94.1237C63.4798 94.763 58.8041 89.527 60.1502 83.9184L62.3831 78.298L62.391 78.3019Z" fill="#FFD14C"/>
<path d="M74.5058 86.4364C74.387 86.4364 74.2722 86.3893 74.1812 86.2991C74.007 86.1226 74.0109 85.8402 74.1891 85.6676L76.521 83.4242C76.6991 83.2516 76.9842 83.2555 77.1584 83.432C77.3326 83.6085 77.3286 83.8909 77.1505 84.0635L74.8186 86.3069C74.7315 86.3893 74.6167 86.4324 74.5058 86.4324V86.4364Z" fill="#5798F7"/>
<path d="M72.1066 84.3851C71.9957 84.3851 71.8809 84.3419 71.7938 84.2596C71.6157 84.087 71.6078 83.8046 71.782 83.6281L74.2326 81.1062C74.4068 80.9297 74.6919 80.9219 74.87 81.0944C75.0482 81.267 75.0561 81.5494 74.8819 81.7259L72.4312 84.2478C72.3441 84.338 72.2254 84.3851 72.1066 84.3851V84.3851Z" fill="#5798F7"/>
<path d="M69.8618 81.769C69.7391 81.769 69.6163 81.7181 69.5292 81.6239C69.363 81.4396 69.3748 81.1572 69.557 80.9925L71.9878 78.8C72.1699 78.6353 72.459 78.647 72.6252 78.8275C72.7915 79.0079 72.7796 79.2942 72.5975 79.4589L70.1666 81.6514C70.0795 81.7298 69.9727 81.769 69.8618 81.769Z" fill="#5798F7"/>
<path d="M74.5098 75.9133C74.4702 75.9133 74.4306 75.9133 74.391 75.9055C74.0901 75.8741 73.8209 75.729 73.6308 75.4976C73.4408 75.2662 73.3537 74.972 73.3854 74.6779C73.4171 74.3837 73.5635 74.1131 73.7971 73.9248L74.1614 73.6307C74.2999 73.5208 74.5018 73.5404 74.6166 73.6777C74.7275 73.815 74.7077 74.015 74.5691 74.1288L74.2049 74.4229C74.1059 74.5053 74.0426 74.619 74.0267 74.7445C74.0149 74.874 74.0505 74.9956 74.1336 75.0975C74.2168 75.1956 74.3316 75.2583 74.4583 75.274C74.585 75.2897 74.7117 75.2505 74.8146 75.1681L75.2145 74.8465C75.353 74.7367 75.555 74.7563 75.6698 74.8936C75.7806 75.0309 75.7608 75.2309 75.6223 75.3446L75.2224 75.6662C75.0205 75.831 74.7711 75.9172 74.5098 75.9172V75.9133Z" fill="#5798F7"/>
<path d="M65.8829 78.7294C65.7365 78.7294 65.59 78.6588 65.5029 78.5255C65.3683 78.3176 65.4276 78.043 65.6375 77.9058L67.8902 76.4624C68.1 76.3291 68.3772 76.3879 68.5157 76.5958C68.6543 76.8036 68.5909 77.0782 68.3811 77.2155L66.1284 78.6588C66.0532 78.7059 65.9661 78.7294 65.8829 78.7294Z" fill="#5798F7"/>
<path d="M25.6231 48.5409V44.7482C25.6231 43.046 26.7633 41.5478 28.4182 41.081L35.0616 39.2024C36.0592 38.92 37.049 39.6612 37.049 40.6888V47.9291L25.6231 48.5409V48.5409Z" fill="white"/>
<path d="M25.1718 49.0155V44.7521C25.1718 42.8578 26.4545 41.1752 28.2915 40.6535L34.9349 38.7748C35.5485 38.6023 36.1899 38.7199 36.7006 39.1004C37.2113 39.4808 37.5003 40.0613 37.5003 40.6928V48.3566L25.1718 49.0194V49.0155ZM35.4891 39.5906C35.3862 39.5906 35.2833 39.6063 35.1803 39.6338L28.537 41.5125C27.084 41.9243 26.0705 43.2539 26.0705 44.7521V48.0742L36.5937 47.5094V40.6928C36.5937 40.3437 36.4314 40.026 36.1543 39.8142C35.9603 39.6691 35.7267 39.5906 35.4891 39.5906V39.5906Z" fill="#5798F7"/>
<path d="M31.9062 57.8089V52.7376L35.41 53.2906C36.2572 53.4239 37.0253 52.7768 37.0292 51.9257L37.045 42.1557C37.045 41.6105 36.4314 41.2811 35.9761 41.587C35.0536 42.2067 33.4858 42.6852 31.051 41.7517C31.051 41.7517 31.9774 44.7718 29.693 46.3994L29.6614 46.27C29.4397 45.3561 28.6162 44.7129 27.67 44.7129C26.5377 44.7129 25.6231 45.6229 25.6231 46.7407V48.5448L19.6964 56.3263L20.8406 55.5889C24.2256 53.4043 28.7191 54.0632 31.3202 57.1225L31.9062 57.8128V57.8089Z" fill="#FFD14C"/>
<path d="M31.9062 58.256C31.7755 58.256 31.6488 58.2011 31.5617 58.0952L30.9758 57.4049C28.5251 54.5221 24.2731 53.9024 21.086 55.9576L19.9418 56.695C19.7597 56.8126 19.5143 56.7852 19.3678 56.6244C19.2173 56.4675 19.2055 56.2243 19.3361 56.0517L25.1718 48.3879V46.7367C25.1718 45.3718 26.2922 44.2619 27.67 44.2619C28.632 44.2619 29.4872 44.7992 29.9029 45.6228C30.4294 45.0698 30.7224 44.3442 30.7778 43.4618C30.8333 42.5871 30.6234 41.8811 30.6195 41.8772C30.572 41.7125 30.6195 41.536 30.7462 41.4223C30.8729 41.3046 31.055 41.2732 31.2133 41.3321C33.4977 42.2067 34.9269 41.7517 35.7227 41.2144C36.0711 40.9791 36.5185 40.9555 36.8906 41.1516C37.2668 41.3477 37.4964 41.7321 37.4964 42.1518L37.4805 51.9218C37.4805 52.4591 37.243 52.965 36.8313 53.3141C36.4195 53.6632 35.8771 53.8122 35.3426 53.7298L32.3615 53.2592V57.8088C32.3615 57.9971 32.2427 58.1658 32.0645 58.2285C32.0131 58.2481 31.9616 58.256 31.9101 58.256H31.9062ZM25.1955 53.8554C27.5156 53.8554 29.8118 54.7967 31.4548 56.593V52.7376C31.4548 52.6081 31.5142 52.4826 31.6132 52.3963C31.7122 52.31 31.8468 52.2747 31.9774 52.2944L35.4812 52.8474C35.7544 52.8905 36.0315 52.8121 36.2453 52.6356C36.4591 52.4591 36.5779 52.1963 36.5779 51.9218L36.5937 42.1518C36.5937 42.0223 36.5027 41.9635 36.467 41.9439C36.4195 41.9204 36.3285 41.889 36.2295 41.9557C35.3506 42.5479 33.8659 43.0695 31.6409 42.4224C31.6765 42.7244 31.7003 43.0892 31.6805 43.4892C31.6013 44.8816 31.0075 46.0151 29.9583 46.7603C29.8356 46.8465 29.6772 46.8662 29.5386 46.8152C29.3961 46.7642 29.2932 46.6465 29.2575 46.5014L29.2259 46.372C29.0517 45.6581 28.4143 45.1561 27.6739 45.1561C26.795 45.1561 26.0784 45.866 26.0784 46.7367V48.5409C26.0784 48.6389 26.0467 48.7331 25.9874 48.8115L21.4978 54.7065C22.6736 54.1378 23.9405 53.8593 25.1995 53.8593L25.1955 53.8554Z" fill="#5798F7"/>
<path d="M28.9962 49.996H27.761C26.3358 49.996 25.1757 48.8468 25.1757 47.4349H26.0784C26.0784 48.3566 26.8346 49.1057 27.765 49.1057H29.0002V49.9999L28.9962 49.996Z" fill="#5798F7"/>
<path d="M32.2031 52.3571L29.8831 51.4668L31.9062 55.9576L32.2031 52.3571Z" fill="#5798F7"/>
<path d="M37.049 44.8071L38.6049 48.1644C38.787 48.5605 38.498 49.0155 38.0546 49.0155H37.049V44.811V44.8071Z" fill="#FFB400"/>
<path d="M38.0546 49.4587H37.049C36.7996 49.4587 36.5977 49.2586 36.5977 49.0115V44.807C36.5977 44.5952 36.7442 44.4148 36.954 44.3717C37.1599 44.3285 37.3737 44.4305 37.4608 44.6227L39.0167 47.98C39.1671 48.3056 39.1394 48.6782 38.9454 48.9802C38.7514 49.2822 38.4188 49.4626 38.0546 49.4626V49.4587ZM37.5003 48.5644H38.0546C38.1298 48.5644 38.1655 48.5213 38.1853 48.4938C38.2011 48.4664 38.2249 48.4154 38.1971 48.3487L37.5003 46.8505V48.5644Z" fill="#5798F7"/>
<path d="M34.143 47.5251C33.5888 47.5251 33.1216 47.0623 33.1216 46.5132C33.1216 46.2661 33.3235 46.066 33.5729 46.066C33.8224 46.066 34.0243 46.2661 34.0243 46.5132C34.0243 46.5563 34.0837 46.6308 34.143 46.6308C34.1787 46.6269 34.2499 46.5485 34.2618 46.5014C34.2697 46.2621 34.4677 46.066 34.7132 46.066C34.9586 46.066 35.1645 46.2661 35.1645 46.5132C35.1645 46.9799 34.7171 47.5251 34.143 47.5251V47.5251Z" fill="#5798F7"/>
<path d="M31.9378 50.4745C32.7534 50.4745 33.4146 49.8195 33.4146 49.0116C33.4146 48.2036 32.7534 47.5486 31.9378 47.5486C31.1223 47.5486 30.4611 48.2036 30.4611 49.0116C30.4611 49.8195 31.1223 50.4745 31.9378 50.4745Z" fill="#B6DAFF"/>
<path d="M37.1163 49.3175C37.1163 49.3175 36.2255 49.3606 35.3783 48.8586C35.014 48.6429 34.5865 49.0194 34.7567 49.3998C35.0497 50.0509 35.699 50.7608 37.1163 51.051V49.3175V49.3175Z" fill="white"/>
<path d="M37.1163 51.4354C37.0886 51.4354 37.0648 51.4354 37.0371 51.4276C35.406 51.0942 34.7052 50.2274 34.4004 49.5606C34.2499 49.2312 34.3331 48.8625 34.6023 48.6233C34.8715 48.384 35.2595 48.3487 35.5683 48.5331C36.3007 48.9645 37.0846 48.937 37.0926 48.937C37.1995 48.937 37.3024 48.9723 37.3776 49.0429C37.4528 49.1135 37.4964 49.2155 37.4964 49.3175V51.0511C37.4964 51.1648 37.4449 51.2746 37.3539 51.3491C37.2826 51.404 37.1995 51.4354 37.1084 51.4354H37.1163ZM35.1526 49.1802C35.1526 49.1802 35.1328 49.1802 35.1209 49.1959C35.0972 49.2194 35.1051 49.2351 35.1091 49.2469C35.3902 49.8666 35.9325 50.3098 36.7283 50.5569V49.6822C36.3483 49.643 35.7544 49.5293 35.1764 49.1881C35.1684 49.1881 35.1605 49.1802 35.1526 49.1802Z" fill="#5798F7"/>
<path d="M28.3786 47.9526H27.5037C27.2543 47.9526 27.0523 47.7526 27.0523 47.5055C27.0523 47.2584 27.2543 47.0583 27.5037 47.0583H27.6581L27.5551 46.8466C27.4483 46.623 27.5393 46.3563 27.765 46.2504C27.9906 46.1445 28.2599 46.2347 28.3668 46.4583L28.7825 47.3094C28.8498 47.4466 28.8418 47.6114 28.7587 47.7408C28.6756 47.8702 28.533 47.9487 28.3747 47.9487L28.3786 47.9526Z" fill="#5798F7"/>
<path d="M113.467 68.9202C112.43 68.4927 111.67 67.3553 112.228 66.01C112.802 64.6647 114.152 64.398 115.189 64.8255C116.227 65.253 116.987 66.3904 116.428 67.7357C115.858 69.081 114.508 69.3477 113.471 68.9202H113.467ZM114.781 65.7982C114.37 65.6295 113.578 65.5668 113.218 66.414C112.865 67.2611 113.467 67.7749 113.879 67.9436C114.291 68.1122 115.082 68.175 115.443 67.3317C115.795 66.4846 115.193 65.9708 114.781 65.7982Z" fill="#5798F7"/>
<path d="M111.416 77.1998L108.977 76.1918C107.845 75.7251 107.085 74.6818 106.99 73.4699C106.899 72.2658 107.481 71.1323 108.514 70.4969C110.177 69.2614 111.852 68.8928 113.233 69.4654C114.615 70.038 115.534 71.4735 115.819 73.513C116.092 74.6857 115.688 75.8976 114.762 76.6781C113.827 77.4665 112.545 77.6665 111.412 77.1998H111.416ZM112.826 70.442C111.8 70.0184 110.49 70.3439 109.136 71.3598L109.092 71.3911C108.38 71.8226 107.992 72.5717 108.055 73.3953C108.118 74.219 108.617 74.9014 109.385 75.2191L111.824 76.2271C112.596 76.5448 113.435 76.4154 114.069 75.878C114.706 75.3407 114.968 74.5406 114.774 73.7366L114.766 73.6856C114.536 72.0187 113.847 70.8695 112.826 70.4459V70.442Z" fill="#5798F7"/>
<path d="M124.628 73.5248C123.59 73.0972 122.83 71.9598 123.388 70.6146C123.963 69.2693 125.313 69.0026 126.35 69.4301C127.387 69.8576 128.147 70.995 127.589 72.3403C127.019 73.6856 125.669 73.9523 124.632 73.5248H124.628ZM125.942 70.4028C125.53 70.2341 124.739 70.1714 124.378 71.0185C124.026 71.8657 124.628 72.3795 125.039 72.5482C125.451 72.7168 126.243 72.7796 126.603 71.9363C126.956 71.0891 126.354 70.5753 125.942 70.4028Z" fill="#83B7FF"/>
<path d="M119.604 69.587C118.566 69.1594 117.806 68.022 118.364 66.6768C118.938 65.3315 120.289 65.0648 121.326 65.4923C122.363 65.9198 123.123 67.0572 122.565 68.4025C121.995 69.7478 120.645 70.0145 119.608 69.587H119.604ZM120.914 66.465C120.502 66.2963 119.71 66.2336 119.35 67.0807C118.998 67.9279 119.6 68.4417 120.011 68.6103C120.423 68.779 121.215 68.8418 121.575 67.9985C121.928 67.1513 121.326 66.6375 120.914 66.465Z" fill="white"/>
<path d="M120.269 72.5913C120.142 72.5403 120.035 72.4383 119.98 72.305C119.564 71.3048 118.4 70.8224 117.39 71.2382C117.117 71.348 116.805 71.2225 116.694 70.9519C116.583 70.6812 116.71 70.3714 116.983 70.2616C118.539 69.6262 120.324 70.3635 120.966 71.9049C121.076 72.1756 120.95 72.4854 120.677 72.5952C120.542 72.6501 120.395 72.6462 120.269 72.5952V72.5913Z" fill="white"/>
<path d="M122.577 81.8043L120.138 80.7964C119.006 80.3296 118.246 79.2863 118.151 78.0744C118.06 76.8703 118.642 75.7368 119.675 75.1014C121.338 73.866 123.012 73.4973 124.394 74.0699C125.776 74.6426 126.694 76.0781 126.979 78.1176C127.253 79.2903 126.849 80.5022 125.922 81.2827C124.988 82.071 123.705 82.2711 122.573 81.8043H122.577ZM123.986 75.0465C122.961 74.623 121.654 74.9485 120.296 75.9643L120.253 75.9957C119.54 76.4271 119.152 77.1762 119.216 77.9999C119.279 78.8235 119.778 79.506 120.546 79.8237L122.985 80.8317C123.757 81.1493 124.596 81.0199 125.229 80.4826C125.863 79.9453 126.128 79.1451 125.934 78.3411L125.926 78.2901C125.697 76.6232 125.008 75.474 123.986 75.0505V75.0465Z" fill="#83B7FF"/>
<path d="M63.6104 52.3689C60.0433 52.3689 56.69 50.9922 54.168 48.4938C51.6461 45.9954 50.2565 42.6734 50.2565 39.1396C50.2565 35.6058 51.6461 32.2837 54.168 29.7854C56.69 27.287 60.0433 25.9103 63.6104 25.9103C67.1775 25.9103 70.5309 27.287 73.0528 29.7854C75.5747 32.2837 76.9644 35.6058 76.9644 39.1396C76.9644 42.6734 75.5747 45.9954 73.0528 48.4938C70.5309 50.9922 67.1775 52.3689 63.6104 52.3689ZM63.6104 26.2711C60.1423 26.2711 56.88 27.6086 54.4254 30.0403C51.9708 32.472 50.6207 35.7038 50.6207 39.1396C50.6207 42.5754 51.9708 45.8072 54.4254 48.2389C56.88 50.6706 60.1423 52.008 63.6104 52.008C67.0786 52.008 70.3408 50.6706 72.7955 48.2389C75.2501 45.8072 76.6001 42.5754 76.6001 39.1396C76.6001 35.7038 75.2501 32.472 72.7955 30.0403C70.3408 27.6086 67.0786 26.2711 63.6104 26.2711V26.2711Z" fill="#B6DAFF" stroke="#B6DAFF" stroke-width="0.5" stroke-miterlimit="10"/>
<path d="M63.6104 52.3689C63.5867 52.3689 63.559 52.365 63.5352 52.3532C60.3679 50.9373 57.8935 47.631 56.9156 43.5127C56.8919 43.4147 56.9513 43.3206 57.0502 43.297C57.1492 43.2735 57.2442 43.3323 57.268 43.4304C58.2221 47.4427 60.6213 50.6549 63.6856 52.0277C63.7767 52.0669 63.8163 52.1728 63.7767 52.263C63.745 52.3297 63.6817 52.3689 63.6104 52.3689V52.3689Z" fill="#B6DAFF" stroke="#B6DAFF" stroke-width="0.5" stroke-miterlimit="10"/>
<path d="M56.88 36.6138C56.88 36.6138 56.8642 36.6138 56.8523 36.6138C56.7533 36.5981 56.686 36.5079 56.6979 36.4098C57.4145 31.515 60.0314 27.4988 63.5312 25.9299C63.6223 25.8907 63.7292 25.9299 63.7688 26.0201C63.8084 26.1103 63.7688 26.2162 63.6777 26.2555C60.2888 27.7733 57.751 31.6837 57.0542 36.4569C57.0423 36.5471 56.9631 36.6098 56.876 36.6098L56.88 36.6138Z" fill="#B6DAFF" stroke="#B6DAFF" stroke-width="0.5" stroke-miterlimit="10"/>
<path d="M63.6104 52.3689C63.5431 52.3689 63.4758 52.3297 63.4441 52.263C63.4046 52.1728 63.4441 52.0669 63.5352 52.0277C65.4949 51.1491 67.1855 49.4783 68.4207 47.1917C69.6876 44.8463 70.3567 42.0616 70.3567 39.1396C70.3567 39.0415 70.4359 38.9592 70.5388 38.9592C70.6417 38.9592 70.7209 39.0376 70.7209 39.1396C70.7209 42.1243 70.036 44.9679 68.7453 47.3604C67.4745 49.7175 65.7246 51.4433 63.6896 52.3532C63.6659 52.365 63.6421 52.3689 63.6144 52.3689H63.6104Z" fill="#B6DAFF" stroke="#B6DAFF" stroke-width="0.5" stroke-miterlimit="10"/>
<path d="M69.1848 32.4485C69.1135 32.4485 69.0462 32.4053 69.0185 32.3386C67.7912 29.452 65.8433 27.2909 63.5352 26.2555C63.4441 26.2162 63.4046 26.1103 63.4441 26.0201C63.4837 25.9299 63.5906 25.8907 63.6817 25.9299C66.0769 27.0046 68.0881 29.2284 69.3511 32.2014C69.3907 32.2916 69.3471 32.3975 69.2561 32.4367C69.2323 32.4445 69.2086 32.4524 69.1848 32.4524V32.4485Z" fill="#B6DAFF" stroke="#B6DAFF" stroke-width="0.5" stroke-miterlimit="10"/>
<path d="M63.6104 52.3689C63.5114 52.3689 63.4283 52.2904 63.4283 52.1885V26.0907C63.4283 25.9927 63.5075 25.9103 63.6104 25.9103C63.7134 25.9103 63.7925 25.9888 63.7925 26.0907V52.1885C63.7925 52.2865 63.7134 52.3689 63.6104 52.3689V52.3689Z" fill="#B6DAFF" stroke="#B6DAFF" stroke-width="0.5" stroke-miterlimit="10"/>
<path d="M76.7823 39.32H59.7068C59.6078 39.32 59.5247 39.2416 59.5247 39.1396C59.5247 39.0376 59.6038 38.9592 59.7068 38.9592H76.7823C76.8812 38.9592 76.9644 39.0376 76.9644 39.1396C76.9644 39.2416 76.8852 39.32 76.7823 39.32Z" fill="#B6DAFF" stroke="#B6DAFF" stroke-width="0.5" stroke-miterlimit="10"/>
<path d="M53.6296 39.32H50.4386C50.3396 39.32 50.2565 39.2416 50.2565 39.1396C50.2565 39.0376 50.3357 38.9592 50.4386 38.9592H53.6296C53.7286 38.9592 53.8117 39.0376 53.8117 39.1396C53.8117 39.2416 53.7325 39.32 53.6296 39.32Z" fill="#B6DAFF" stroke="#B6DAFF" stroke-width="0.5" stroke-miterlimit="10"/>
<path d="M63.6896 32.1739C60.5738 32.1739 57.5887 30.9738 55.5022 28.8833C55.431 28.8127 55.431 28.6989 55.5022 28.6283C55.5735 28.5577 55.6883 28.5577 55.7596 28.6283C57.7787 30.6521 60.6688 31.8131 63.6896 31.8131C66.7104 31.8131 69.5332 30.6757 71.5523 28.695C71.6236 28.6244 71.7384 28.6244 71.8097 28.695C71.8809 28.7656 71.8809 28.8793 71.8097 28.9499C70.7882 29.954 69.5728 30.7463 68.199 31.3032C66.7777 31.8798 65.2614 32.17 63.6936 32.17L63.6896 32.1739Z" fill="#B6DAFF" stroke="#B6DAFF" stroke-width="0.5" stroke-miterlimit="10"/>
<path d="M55.5854 49.6469C55.5379 49.6469 55.4943 49.6312 55.4587 49.5959C55.3874 49.5253 55.3874 49.4116 55.4587 49.341C57.5451 47.2505 60.5303 46.0504 63.6461 46.0504C65.2139 46.0504 66.7302 46.3406 68.1515 46.9171C69.5253 47.4741 70.7407 48.2663 71.7622 49.2704C71.8334 49.341 71.8334 49.4547 71.7622 49.5253C71.6909 49.5959 71.5761 49.5959 71.5048 49.5253C69.4897 47.5447 66.6233 46.4073 63.6421 46.4073C60.6609 46.4073 57.7312 47.5682 55.7121 49.592C55.6764 49.6273 55.6289 49.6469 55.5854 49.6469Z" fill="#B6DAFF" stroke="#B6DAFF" stroke-width="0.5" stroke-miterlimit="10"/>
<path d="M72.6026 36.4532L70.5981 38.4389L68.5937 36.4532C67.9386 35.8042 67.9358 34.7476 68.5937 34.0958L69.4084 33.2888C70.0634 32.6398 71.13 32.637 71.7879 33.2888L72.6026 34.0958C73.2576 34.7448 73.2604 35.8014 72.6026 36.4532Z" fill="#FFB400"/>
<path d="M70.5982 36.7824C71.4334 36.7824 72.1106 36.1116 72.1106 35.2842C72.1106 34.4567 71.4334 33.7859 70.5982 33.7859C69.7629 33.7859 69.0858 34.4567 69.0858 35.2842C69.0858 36.1116 69.7629 36.7824 70.5982 36.7824Z" fill="#5798F7"/>
<path d="M70.5982 35.2528C70.8322 35.2528 71.0218 35.0649 71.0218 34.8331C71.0218 34.6013 70.8322 34.4135 70.5982 34.4135C70.3642 34.4135 70.1746 34.6013 70.1746 34.8331C70.1746 35.0649 70.3642 35.2528 70.5982 35.2528Z" fill="white"/>
<path d="M71.5523 36.4451C71.291 36.6569 70.9585 36.7824 70.5982 36.7824C70.2379 36.7824 69.9054 36.6569 69.6441 36.4451C69.6124 36.2804 69.6441 36.1039 69.7549 35.947L69.8578 35.8058C70.2221 35.3077 70.9703 35.3077 71.3385 35.8058L71.4415 35.947C71.5563 36.1039 71.588 36.2804 71.5523 36.4451Z" fill="white"/>
<path d="M58.6299 37.912C58.5982 37.912 58.5666 37.9002 58.5389 37.8767C58.4834 37.8257 58.4795 37.7433 58.527 37.6845C58.6616 37.5355 58.8081 37.3864 58.9546 37.2452C59.01 37.1942 59.0931 37.1942 59.1485 37.2452C59.2 37.3001 59.2 37.3825 59.1485 37.4374C59.006 37.5747 58.8675 37.7159 58.7368 37.861C58.7091 37.8924 58.6735 37.9081 58.6339 37.9081L58.6299 37.912ZM59.5009 37.0805C59.4613 37.0805 59.4217 37.0648 59.394 37.0334C59.3465 36.9746 59.3544 36.8922 59.4138 36.8452C59.5722 36.7157 59.7345 36.5902 59.9008 36.4765C59.9602 36.4333 60.0473 36.449 60.0908 36.5079C60.1344 36.5667 60.1185 36.653 60.0591 36.6961C59.8968 36.8099 59.7384 36.9275 59.588 37.053C59.5642 37.0726 59.5326 37.0844 59.5009 37.0844V37.0805ZM60.4907 36.3902C60.4432 36.3902 60.3996 36.3667 60.3719 36.3235C60.3323 36.2608 60.3561 36.1784 60.4194 36.1392C60.5936 36.0333 60.7757 35.9352 60.9578 35.845C61.0251 35.8097 61.1083 35.8372 61.14 35.9039C61.1756 35.9705 61.1479 36.0529 61.0806 36.0843C60.9024 36.1706 60.7282 36.2686 60.558 36.3667C60.5342 36.3784 60.5105 36.3863 60.4867 36.3863L60.4907 36.3902ZM68.0446 35.9627C68.0446 35.9627 68.005 35.9588 67.9892 35.9509C67.811 35.8686 67.6249 35.794 67.4388 35.7274C67.3676 35.6999 67.332 35.6254 67.3597 35.5548C67.3874 35.4842 67.4626 35.4489 67.5339 35.4763C67.7239 35.5469 67.9179 35.6254 68.104 35.7078C68.1713 35.7391 68.2029 35.8176 68.1713 35.8882C68.1475 35.9392 68.1 35.9666 68.0485 35.9666L68.0446 35.9627ZM61.5715 35.8529C61.5161 35.8529 61.4686 35.8215 61.4448 35.7705C61.4171 35.6999 61.4488 35.6215 61.52 35.594C61.7101 35.5156 61.9041 35.445 62.0981 35.3822C62.1693 35.3587 62.2445 35.3979 62.2683 35.4685C62.2921 35.5391 62.2525 35.6136 62.1812 35.6372C61.9951 35.696 61.8051 35.7666 61.623 35.8411C61.6071 35.849 61.5873 35.8529 61.5715 35.8529V35.8529ZM66.9083 35.5469C66.9083 35.5469 66.8846 35.5469 66.8727 35.543C66.6827 35.4881 66.4887 35.441 66.2947 35.4018C66.2195 35.3861 66.1719 35.3155 66.1878 35.241C66.2036 35.1665 66.2749 35.1194 66.3501 35.1351C66.552 35.1743 66.75 35.2253 66.9479 35.2802C67.0192 35.2999 67.0627 35.3744 67.0429 35.445C67.0271 35.5038 66.9717 35.543 66.9123 35.543L66.9083 35.5469ZM62.7196 35.4803C62.6602 35.4803 62.6009 35.4371 62.589 35.3783C62.5692 35.3077 62.6167 35.2332 62.688 35.2136C62.8859 35.1665 63.0878 35.1234 63.2897 35.0881C63.365 35.0763 63.4323 35.1234 63.4481 35.1979C63.46 35.2724 63.4125 35.3391 63.3372 35.3548C63.1433 35.3861 62.9453 35.4293 62.7553 35.4724C62.7434 35.4724 62.7315 35.4763 62.7236 35.4763L62.7196 35.4803ZM65.7246 35.3077C65.7246 35.3077 65.7127 35.3077 65.7087 35.3077C65.5147 35.2842 65.3128 35.2646 65.1149 35.2567C65.0396 35.2567 64.9803 35.19 64.9842 35.1155C64.9842 35.041 65.0515 34.9861 65.1267 34.9861C65.3326 34.9979 65.5385 35.0135 65.7404 35.041C65.8156 35.0488 65.8671 35.1194 65.8592 35.19C65.8513 35.2567 65.7919 35.3077 65.7246 35.3077V35.3077ZM63.9113 35.2802C63.84 35.2802 63.7846 35.2293 63.7767 35.1587C63.7688 35.0841 63.8242 35.0175 63.8994 35.0096C64.1013 34.99 64.3112 34.9782 64.5131 34.9743C64.5883 34.9743 64.6477 35.0331 64.6477 35.1077C64.6477 35.1822 64.5883 35.2449 64.5131 35.2449C64.3151 35.2489 64.1172 35.2606 63.9192 35.2802H63.9074H63.9113Z" fill="#FFB400"/>
<path d="M58.7477 40.7586L56.7432 42.7443L54.7388 40.7586C54.0837 40.1096 54.0809 39.053 54.7388 38.4012L55.5535 37.5942C56.2085 36.9452 57.2751 36.9424 57.933 37.5942L58.7477 38.4012C59.4028 39.0502 59.4056 40.1068 58.7477 40.7586Z" fill="#FFB400"/>
<path d="M56.7414 41.0889C57.5767 41.0889 58.2538 40.4181 58.2538 39.5906C58.2538 38.7632 57.5767 38.0924 56.7414 38.0924C55.9062 38.0924 55.2291 38.7632 55.2291 39.5906C55.2291 40.4181 55.9062 41.0889 56.7414 41.0889Z" fill="#5798F7"/>
<path d="M56.7414 39.5318C56.9754 39.5318 57.1651 39.3439 57.1651 39.1121C57.1651 38.8804 56.9754 38.6925 56.7414 38.6925C56.5075 38.6925 56.3178 38.8804 56.3178 39.1121C56.3178 39.3439 56.5075 39.5318 56.7414 39.5318Z" fill="white"/>
<path d="M57.6877 40.7634C57.4303 40.9673 57.1017 41.0928 56.7414 41.0928C56.3812 41.0928 56.0565 40.9712 55.7952 40.7634C55.7477 40.5908 55.7754 40.3947 55.8982 40.226L56.0011 40.0848C56.3653 39.5867 57.1136 39.5867 57.4778 40.0848L57.5808 40.226C57.7035 40.3947 57.7312 40.5869 57.6837 40.7634H57.6877Z" fill="white"/>
</g>
<defs>
<clipPath id="clip0_1_1092">
<rect width="182.466" height="120" fill="white"/>
</clipPath>
</defs>
</svg>
