<svg width="154" height="120" viewBox="0 0 154 120" fill="none" xmlns="http://www.w3.org/2000/svg">
<g clip-path="url(#clip0_1_1328)">
<path d="M119.375 55.6832V30.6326C119.375 30.6326 119.593 26.0209 119.635 25.8915C119.677 25.7621 121.861 24.3712 121.861 24.3712L146.261 24.154C146.261 24.154 151.414 25.2399 151.456 25.4571C151.497 25.6743 152.11 27.458 152.156 27.5874C152.202 27.7168 152.114 46.2887 151.938 46.7693C151.762 47.2498 150.936 49.8145 150.936 49.8145C150.936 49.8145 149.976 50.9004 149.582 50.8589C149.188 50.8173 142.338 50.7295 142.338 50.7295L126.406 50.3829L123.438 51.1223L119.38 55.6878L119.375 55.6832Z" fill="white"/>
<path d="M47.7475 51.2007V4.62085L46.6112 2.70775L44.385 1.82976H7.15191L4.35989 3.10054L3.15404 5.60975L3.65957 50.0547L4.31351 53.3588L6.05737 54.4678C6.05737 54.4678 8.19544 54.99 8.37168 54.99C8.54792 54.99 38.9262 54.6434 39.9326 54.7312C40.939 54.819 45.3868 54.6434 45.6511 54.5556C45.9155 54.4678 47.7475 52.5547 47.7475 52.5547V51.2054V51.2007Z" fill="white"/>
<path d="M47.0889 47.8967H55.6876L46.8292 40.577L47.0889 47.8967Z" fill="white"/>
<path d="M40.2758 45.0918H10.5098C9.13426 45.0918 8.0192 46.2028 8.0192 47.5733C8.0192 48.9437 9.13426 50.0547 10.5098 50.0547H40.2758C41.6513 50.0547 42.7664 48.9437 42.7664 47.5733C42.7664 46.2028 41.6513 45.0918 40.2758 45.0918Z" fill="#A9D0FF"/>
<path d="M131.735 37.4905H127.093V38.826H131.735V37.4905Z" fill="#5798F7"/>
<path d="M140.639 30.9848L138.773 33.5979L139.865 34.3721L141.731 31.759L140.639 30.9848Z" fill="#5798F7"/>
<path d="M136.712 43.9737C133.493 43.9737 130.877 41.3674 130.877 38.1604C130.877 34.9535 133.493 32.3472 136.712 32.3472C139.93 32.3472 142.546 34.9535 142.546 38.1604C142.546 41.3674 139.93 43.9737 136.712 43.9737ZM136.712 33.6781C134.23 33.6781 132.213 35.6882 132.213 38.1604C132.213 40.6327 134.23 42.6428 136.712 42.6428C139.193 42.6428 141.211 40.6327 141.211 38.1604C141.211 35.6882 139.193 33.6781 136.712 33.6781Z" fill="#83B7FF"/>
<path d="M124.588 40.6604C125.936 40.6604 127.028 39.5721 127.028 38.2297C127.028 36.8873 125.936 35.7991 124.588 35.7991C123.241 35.7991 122.149 36.8873 122.149 38.2297C122.149 39.5721 123.241 40.6604 124.588 40.6604Z" fill="#FFD14C"/>
<path d="M141.994 31.9128C142.986 31.9128 143.789 31.1121 143.789 30.1244C143.789 29.1368 142.986 28.3361 141.994 28.3361C141.003 28.3361 140.199 29.1368 140.199 30.1244C140.199 31.1121 141.003 31.9128 141.994 31.9128Z" fill="#FFD14C"/>
<path d="M143.877 45.7482C144.869 45.7482 145.672 44.9476 145.672 43.9599C145.672 42.9722 144.869 42.1716 143.877 42.1716C142.886 42.1716 142.082 42.9722 142.082 43.9599C142.082 44.9476 142.886 45.7482 143.877 45.7482Z" fill="#91E6F0"/>
<path d="M38.2351 67.7672C38.4438 67.9751 38.4438 68.3124 38.2351 68.5204C38.1285 68.6267 37.994 68.6775 37.8548 68.6775C37.7157 68.6775 37.5812 68.6267 37.4745 68.5204L36.5516 67.6008L35.6286 68.5204C35.522 68.6267 35.3875 68.6775 35.2483 68.6775C35.1092 68.6775 34.9747 68.6267 34.868 68.5204C34.6593 68.3124 34.6593 67.9751 34.868 67.7672L35.791 66.8476L34.868 65.928C34.6593 65.7201 34.6593 65.3827 34.868 65.1748C35.0767 64.9668 35.4153 64.9668 35.624 65.1748L36.5469 66.0944L37.4699 65.1748C37.6786 64.9668 38.0172 64.9668 38.2259 65.1748C38.4346 65.3827 38.4346 65.7201 38.2259 65.928L37.3029 66.8476L38.2259 67.7672H38.2351Z" fill="#FFB400"/>
<path d="M42.7664 37.7352H8.99315V38.9228H42.7664V37.7352Z" fill="#FFD14C"/>
<path d="M42.7664 40.3784H8.99315V41.5661H42.7664V40.3784Z" fill="#FFD14C"/>
<path d="M19.2476 48.6596C19.8495 48.6596 20.3375 48.1734 20.3375 47.5736C20.3375 46.9739 19.8495 46.4877 19.2476 46.4877C18.6456 46.4877 18.1577 46.9739 18.1577 47.5736C18.1577 48.1734 18.6456 48.6596 19.2476 48.6596Z" fill="white"/>
<path d="M25.4763 48.6596C26.0782 48.6596 26.5662 48.1734 26.5662 47.5736C26.5662 46.9739 26.0782 46.4877 25.4763 46.4877C24.8743 46.4877 24.3864 46.9739 24.3864 47.5736C24.3864 48.1734 24.8743 48.6596 25.4763 48.6596Z" fill="white"/>
<path d="M31.705 48.6596C32.3069 48.6596 32.7949 48.1734 32.7949 47.5736C32.7949 46.9739 32.3069 46.4877 31.705 46.4877C31.103 46.4877 30.6151 46.9739 30.6151 47.5736C30.6151 48.1734 31.103 48.6596 31.705 48.6596Z" fill="white"/>
<path d="M18.4127 35.6513H8.50618C8.23718 35.6513 8.0192 35.4341 8.0192 35.1661V27.8834C8.0192 27.6154 8.23718 27.3982 8.50618 27.3982H18.4127C18.6817 27.3982 18.8997 27.6154 18.8997 27.8834V35.1661C18.8997 35.4341 18.6817 35.6513 18.4127 35.6513ZM8.99315 34.6809H17.9258V28.3686H8.99315V34.6809Z" fill="#83B7FF"/>
<path d="M13.4595 33.9182C13.8872 33.9182 14.234 33.5727 14.234 33.1465C14.234 32.7203 13.8872 32.3748 13.4595 32.3748C13.0317 32.3748 12.6849 32.7203 12.6849 33.1465C12.6849 33.5727 13.0317 33.9182 13.4595 33.9182Z" fill="#FFB400"/>
<path d="M13.9928 29.0246H12.9215V31.6863H13.9928V29.0246Z" fill="#FFB400"/>
<path d="M55.7247 48.4376H48.7075C48.3782 48.4376 48.1139 48.1696 48.1139 47.8462C48.1139 47.5227 48.3829 47.2547 48.7075 47.2547H54.0828L47.4645 41.7279C47.33 41.617 47.2512 41.4507 47.2512 41.2751V5.60541C47.2512 3.84942 45.8181 2.42152 44.0557 2.42152C43.7264 2.42152 43.462 2.1535 43.462 1.83003C43.462 1.50656 43.731 1.23854 44.0557 1.23854C46.4767 1.23854 48.4431 3.19785 48.4431 5.61003V40.9932L56.105 47.3887C56.2951 47.5504 56.3693 47.8138 56.2812 48.0449C56.1977 48.2805 55.9705 48.4376 55.72 48.4376H55.7247Z" fill="#83B7FF"/>
<path d="M44.0603 55.3738H7.53685C5.11587 55.3738 3.1494 53.4145 3.1494 51.0023V5.6054C3.1494 3.19323 5.11587 1.23392 7.53685 1.23392H36.5284C36.8577 1.23392 37.122 1.50194 37.122 1.82541C37.122 2.14888 36.853 2.4169 36.5284 2.4169H7.53685C5.77445 2.4169 4.34134 3.84479 4.34134 5.60078V51.0023C4.34134 52.7583 5.77445 54.1862 7.53685 54.1862H44.0557C45.8181 54.1862 47.2512 52.7583 47.2512 51.0023C47.2512 50.6742 47.5202 50.4108 47.8449 50.4108C48.1695 50.4108 48.4385 50.6788 48.4385 51.0023C48.4385 53.4145 46.472 55.3738 44.0511 55.3738H44.0603Z" fill="#83B7FF"/>
<path d="M42.08 2.74965C42.2887 2.95759 42.2887 3.29493 42.08 3.50288C41.9779 3.60916 41.8388 3.65999 41.6996 3.65999C41.5605 3.65999 41.426 3.60916 41.324 3.50288L40.401 2.58329L39.4781 3.50288C39.3761 3.60916 39.2369 3.65999 39.0978 3.65999C38.9586 3.65999 38.8241 3.60916 38.7221 3.50288C38.5134 3.29493 38.5134 2.95759 38.7221 2.74965L39.6451 1.83007L38.7221 0.910483C38.5134 0.702537 38.5134 0.365202 38.7221 0.157256C38.9308 -0.0506895 39.2694 -0.0506895 39.4781 0.157256L40.401 1.07684L41.324 0.157256C41.5327 -0.0506895 41.8713 -0.0506895 42.08 0.157256C42.2887 0.365202 42.2887 0.702537 42.08 0.910483L41.157 1.83007L42.08 2.74965Z" fill="#FFB400"/>
<path d="M121.801 116.459L86.7615 131.417L40.568 116.459C29.4046 116.459 21.6917 104.726 25.8195 94.389C33.1474 76.0482 48.5127 60.1519 65.7147 53.3543C68.1032 58.1694 74.3737 62.1897 81.7294 62.1897C89.0851 62.1897 95.5179 58.3774 97.9667 53.6547C114.38 60.3968 129.449 76.3532 136.568 94.4214C140.64 104.763 132.983 112.36 121.806 116.454L121.801 116.459Z" fill="#83B7FF"/>
<path d="M97.8646 54.847L87.3783 82.3143H75.9134L65.1999 54.14L66.1785 53.6594C68.6598 57.6288 74.7957 61.6491 81.7247 61.6491C88.6538 61.6491 94.261 58.798 96.8768 54.3803L97.86 54.8516L97.8646 54.847Z" fill="#FFD14C"/>
<path d="M152.114 109.943L147.268 89.0331C145.366 80.8355 138.043 75.0314 129.597 75.0314C123.976 75.0314 118.675 77.6285 115.243 82.06L79.0672 128.751L37.6508 116.219C19.651 110.77 3.65029 129.093 11.5533 146.103L11.9243 146.898C18.6725 161.417 33.0731 170.585 48.9209 170.585H103.708C135.659 170.585 159.303 140.964 152.114 109.948V109.943Z" fill="white"/>
<path d="M103.708 171.176H48.9209C41.0225 171.176 33.3329 168.931 26.6868 164.684C20.0267 160.428 14.7349 154.361 11.3817 147.147L11.0106 146.352C7.25394 138.266 8.56647 129.07 14.4334 122.351C20.305 115.632 29.2654 113.063 37.8177 115.655L78.84 128.072L114.765 81.7043C118.285 77.1618 123.828 74.4446 129.593 74.4446C133.808 74.4446 137.95 75.8864 141.252 78.5019C144.554 81.1174 146.892 84.8142 147.843 88.9084L152.689 109.819C156.158 124.781 152.643 140.257 143.052 152.272C133.456 164.291 119.116 171.181 103.704 171.181L103.708 171.176ZM31.1994 115.844C25.2026 115.844 19.4609 118.4 15.3378 123.122C9.7816 129.486 8.53864 138.192 12.0959 145.849L12.4669 146.643C15.7274 153.654 20.8662 159.545 27.3361 163.681C33.7874 167.808 41.2544 169.989 48.9255 169.989H103.713C118.758 169.989 132.76 163.261 142.129 151.528C151.497 139.795 154.925 124.689 151.539 110.077L146.692 89.1672C145.802 85.3318 143.613 81.8706 140.519 79.4215C137.431 76.9723 133.553 75.623 129.602 75.623C124.208 75.623 119.018 78.1646 115.721 82.4205L79.2898 129.435L37.4838 116.782C35.3967 116.149 33.2865 115.844 31.2041 115.844H31.1994Z" fill="#5798F7"/>
<path d="M139.959 106.088L111.662 162.219L112.728 162.752L141.024 106.621L139.959 106.088Z" fill="#5798F7"/>
<path d="M64.866 115.942H54.2776C51.0589 115.942 48.4478 118.543 48.4478 121.75C48.4478 123.451 49.7325 124.874 51.4253 125.059L52.6915 125.197C54.6672 125.41 56.3925 123.871 56.3925 121.889L65.2509 124.569L64.866 115.942V115.942Z" fill="white"/>
<path d="M53.0532 125.747C52.9141 125.747 52.7749 125.738 52.6358 125.724L51.3697 125.586C49.3986 125.373 47.9144 123.723 47.9144 121.745C47.9144 118.247 50.7714 115.401 54.2823 115.401H65.3808L65.8214 125.29L56.8656 122.577C56.7125 123.409 56.2858 124.176 55.6412 124.749C54.9269 125.387 54.004 125.738 53.0532 125.738V125.747ZM54.2823 116.473C51.3604 116.473 48.9858 118.839 48.9858 121.75C48.9858 123.178 50.0618 124.375 51.4856 124.527L52.7518 124.666C53.5402 124.749 54.3379 124.495 54.9269 123.968C55.5206 123.437 55.8592 122.679 55.8592 121.889V121.168L64.6851 123.839L64.3558 116.473H54.2776H54.2823Z" fill="#5798F7"/>
<path d="M85.7922 120.068L80.3148 108.723C79.9763 108.026 79.0255 107.919 78.5431 108.525L75.9227 111.81H71.5724C69.2024 111.81 66.9855 112.956 65.6173 114.879L63.1221 118.391C61.5313 120.632 62.6073 123.769 65.2463 124.569L79.0626 128.751L85.7922 120.068Z" fill="white"/>
<path d="M79.262 129.365L65.0932 125.077C63.6694 124.647 62.5748 123.594 62.0925 122.194C61.6102 120.789 61.8281 119.292 62.6861 118.081L65.1813 114.569C66.6469 112.503 69.0354 111.274 71.5724 111.274H75.663L78.1211 108.187C78.4643 107.758 78.993 107.536 79.5403 107.6C80.0876 107.66 80.556 107.993 80.7925 108.488L86.4137 120.128L79.2574 129.361L79.262 129.365ZM71.577 112.342C69.3879 112.342 67.3241 113.404 66.0579 115.188L63.5627 118.7C62.9041 119.629 62.7372 120.775 63.1082 121.852C63.4792 122.928 64.3141 123.732 65.404 124.06L78.8632 128.136L85.1614 120.003L79.8278 108.954C79.7165 108.723 79.5032 108.677 79.4197 108.668C79.3362 108.659 79.1182 108.659 78.9559 108.857L76.1732 112.346H71.5677L71.577 112.342Z" fill="#004C85"/>
<path d="M70.886 111.81L72.9359 108.816C73.4415 108.076 74.5499 108.123 74.9905 108.899L76.6509 111.81" fill="#5798F7"/>
<path d="M71.3266 112.11L70.4407 111.51L72.4907 108.515C72.8339 108.016 73.3997 107.73 74.0073 107.757C74.6148 107.781 75.1575 108.113 75.4543 108.635L77.1147 111.547L76.1825 112.074L74.5221 109.162C74.4061 108.954 74.1974 108.83 73.9609 108.82C73.7244 108.811 73.5064 108.917 73.3719 109.116L71.3219 112.11H71.3266Z" fill="#5798F7"/>
<path d="M68.9891 119.763C68.145 119.763 67.4632 118.954 67.4632 117.961H68.5346C68.5346 118.381 68.7757 118.696 68.9937 118.696C69.2117 118.696 69.4529 118.381 69.4529 117.961H70.5242C70.5242 118.954 69.8378 119.763 68.9983 119.763H68.9891Z" fill="#5798F7"/>
<path d="M64.583 124.222C65.7716 124.222 66.735 123.262 66.735 122.078C66.735 120.894 65.7716 119.934 64.583 119.934C63.3945 119.934 62.4311 120.894 62.4311 122.078C62.4311 123.262 63.3945 124.222 64.583 124.222Z" fill="#91E6F0"/>
<path d="M76.1639 112.365L77.8753 110.23C78.1675 109.865 78.7519 109.957 78.9142 110.396L79.647 112.365H76.1639V112.365Z" fill="#91E6F0"/>
<path d="M64.3883 119.564H62.4311V120.632H64.3883V119.564Z" fill="#5798F7"/>
<path d="M79.2666 129.384L65.0886 125.096C63.6601 124.661 62.5656 123.608 62.0832 122.203C61.6009 120.798 61.8189 119.292 62.6769 118.081L65.1721 114.569C66.6423 112.504 69.0354 111.27 71.577 111.27H75.663L78.1211 108.187C78.4643 107.758 78.9976 107.536 79.5496 107.596C80.1015 107.656 80.5699 107.989 80.8111 108.488L86.4368 120.142L79.2713 129.389L79.2666 129.384ZM71.577 112.36C69.3926 112.36 67.3333 113.423 66.0672 115.202L63.572 118.714C62.918 119.638 62.7511 120.78 63.1175 121.852C63.4839 122.924 64.3187 123.723 65.4086 124.056L78.8631 128.127L85.1521 120.008L79.8232 108.964C79.7165 108.737 79.5078 108.691 79.429 108.682C79.3455 108.673 79.1368 108.673 78.9791 108.867L76.1917 112.36H71.577V112.36Z" fill="#5798F7"/>
<path d="M79.0672 128.751L86.7661 118.816H75.3894C73.0008 118.816 71.0622 120.747 71.0622 123.127C71.0622 125.026 72.3098 126.704 74.1325 127.254L79.0718 128.746L79.0672 128.751Z" fill="white"/>
<path d="M79.262 129.366L73.9702 127.762C71.9063 127.138 70.5196 125.276 70.5196 123.127C70.5196 120.456 72.6994 118.28 75.3848 118.28H87.8514L79.262 129.361V129.366ZM75.3848 119.347C73.2931 119.347 71.591 121.043 71.591 123.127C71.591 124.805 72.6716 126.256 74.2809 126.745L78.8678 128.132L85.6716 119.347H75.3848V119.347Z" fill="#5798F7"/>
<path d="M63.8642 113.085H61.2067C60.9841 113.085 60.7846 112.951 60.7011 112.748C60.6177 112.545 60.664 112.309 60.8217 112.152L62.547 110.433H61.0026V109.342H63.8688C64.0914 109.342 64.2909 109.476 64.3744 109.68C64.4578 109.883 64.4115 110.119 64.2538 110.276L62.5285 111.995H63.8642V113.085Z" fill="#FFD14C"/>
<path d="M69.425 108.834H66.7675C66.5449 108.834 66.3454 108.7 66.262 108.497C66.1785 108.294 66.2249 108.058 66.3825 107.901L68.1078 106.182H66.5634V105.091H69.4296C69.6523 105.091 69.8517 105.225 69.9352 105.429C70.0187 105.632 69.9723 105.868 69.8146 106.025L68.0893 107.744H69.425V108.834Z" fill="white"/>
<path d="M103.917 71.418L104.747 71.7461C107.066 72.6703 108.546 74.9531 108.434 77.4392L107.818 83.2987L112.2 85.794L100.035 101.69L93.5746 87.7626C92.0441 84.4678 92.6656 80.5815 95.1422 77.9152L100.471 72.1897C101.352 71.2424 102.725 70.9328 103.926 71.4134L103.917 71.418Z" fill="white"/>
<path d="M99.9053 102.836L93.0273 88.0165C91.3901 84.4907 92.0441 80.3687 94.697 77.5175L100.026 71.7921C101.065 70.6738 102.721 70.3041 104.14 70.8679L104.97 71.196C107.521 72.2126 109.153 74.7311 109.028 77.4713V77.5083L108.448 82.9796L113.082 85.6182L99.9053 102.836V102.836ZM102.767 71.7921C102.071 71.7921 101.389 72.074 100.902 72.5962L95.5735 78.3216C93.25 80.817 92.6795 84.426 94.1126 87.5128L100.16 100.544L111.315 85.9694L107.187 83.6173L107.845 77.3928C107.938 75.1654 106.612 73.1183 104.534 72.2912L103.704 71.9631C103.402 71.8429 103.087 71.7829 102.772 71.7829L102.767 71.7921Z" fill="#5798F7"/>
<path d="M99.8636 81.5842C99.2097 81.5842 98.5511 81.3901 97.9806 80.9788C97.2756 80.4751 96.8119 79.7311 96.6727 78.8809C96.5336 78.0306 96.733 77.1757 97.2385 76.4733L100.443 72.0187C101.519 70.5261 103.147 70.2442 105.026 71.2238L104.474 72.2774C103.115 71.5658 102.141 71.7044 101.413 72.7118L98.2079 77.1665C97.8878 77.6101 97.7626 78.1508 97.8507 78.6868C97.9389 79.2228 98.2357 79.6988 98.6809 80.013C99.5992 80.6692 100.884 80.4566 101.543 79.5417L103.708 76.5288L104.678 77.2219L102.512 80.2348C101.881 81.1128 100.884 81.5796 99.8729 81.5796L99.8636 81.5842Z" fill="#5798F7"/>
<path d="M99.5667 80.2903C100.351 80.2903 100.986 79.6572 100.986 78.8763C100.986 78.0953 100.351 77.4622 99.5667 77.4622C98.7829 77.4622 98.1476 78.0953 98.1476 78.8763C98.1476 79.6572 98.7829 80.2903 99.5667 80.2903Z" fill="#FFD14C"/>
<path d="M96.5372 65.7945L96.5343 65.791C95.6148 64.6609 93.9501 64.4874 92.8159 65.4035L88.5394 68.8577C87.4052 69.7737 87.2311 71.4324 88.1506 72.5625L88.1535 72.5661C89.0729 73.6961 90.7376 73.8696 91.8718 72.9535L96.1483 69.4993C97.2825 68.5833 97.4566 66.9246 96.5372 65.7945Z" fill="white"/>
<path d="M90.2121 74.1351C90.0962 74.1351 89.9848 74.1305 89.8689 74.1166C89.0062 74.0288 88.2317 73.6083 87.6891 72.9382C86.5621 71.5565 86.7754 69.5187 88.1668 68.3958L92.4429 64.9439C93.1154 64.3986 93.9595 64.1491 94.8222 64.2415C95.6848 64.3293 96.4594 64.7498 97.002 65.4198C98.129 66.8015 97.9157 68.8394 96.5243 69.9623L92.2481 73.4142C91.6638 73.8855 90.9542 74.1351 90.2121 74.1351ZM94.479 65.4106C94.0105 65.4106 93.5607 65.5677 93.1943 65.8681L88.9181 69.32C88.0416 70.027 87.9071 71.3163 88.6167 72.1942C88.9599 72.6194 89.4515 72.8828 89.9941 72.9382C90.5368 72.9937 91.0748 72.8366 91.4968 72.4946L95.773 69.0427C96.6495 68.3357 96.784 67.0464 96.0744 66.1684C95.7312 65.7433 95.2396 65.4799 94.697 65.4245C94.6228 65.4152 94.5532 65.4152 94.479 65.4152V65.4106Z" fill="#5798F7"/>
<path d="M89.7715 72.8687C90.5553 72.8687 91.1907 72.2356 91.1907 71.4547C91.1907 70.6737 90.5553 70.0406 89.7715 70.0406C88.9877 70.0406 88.3523 70.6737 88.3523 71.4547C88.3523 72.2356 88.9877 72.8687 89.7715 72.8687Z" fill="#FFD14C"/>
<path d="M100.517 68.2348L100.513 68.2321C99.3264 67.3842 97.6748 67.6552 96.8238 68.8373L93.6152 73.2945C92.7643 74.4766 93.0362 76.1221 94.2226 76.97L94.2264 76.9727C95.4128 77.8205 97.0644 77.5496 97.9154 76.3675L101.124 71.9103C101.975 70.7282 101.703 69.0826 100.517 68.2348Z" fill="white"/>
<path d="M95.7683 78.0584C95.1143 78.0584 94.4558 77.8643 93.8853 77.453C92.4336 76.4133 92.0997 74.3939 93.1386 72.9475L96.3434 68.4929C96.8489 67.7905 97.5956 67.3284 98.449 67.1897C99.3024 67.0511 100.16 67.2498 100.865 67.7535C101.57 68.2572 102.034 69.0012 102.173 69.8514C102.312 70.7017 102.113 71.5566 101.607 72.259L98.4026 76.7137C97.7719 77.5916 96.7747 78.0584 95.7636 78.0584H95.7683ZM94.5763 76.4918C95.4947 77.148 96.7794 76.9355 97.4379 76.0205L100.643 71.5658C100.963 71.1222 101.088 70.5816 101 70.0455C100.912 69.5095 100.615 69.0335 100.17 68.7193C99.7244 68.4004 99.1818 68.2757 98.6438 68.3635C98.1058 68.4513 97.6281 68.747 97.3127 69.1906L94.1079 73.6453C93.7879 74.0889 93.6627 74.6296 93.7508 75.1656C93.8389 75.7017 94.1358 76.1776 94.581 76.4918H94.5763Z" fill="#5798F7"/>
<path d="M95.4715 76.8427C96.2553 76.8427 96.8907 76.2097 96.8907 75.4287C96.8907 74.6478 96.2553 74.0147 95.4715 74.0147C94.6877 74.0147 94.0523 74.6478 94.0523 75.4287C94.0523 76.2097 94.6877 76.8427 95.4715 76.8427Z" fill="#FFD14C"/>
<path d="M89.7483 76.1038L87.3783 82.3144H75.9134L73.5435 76.1038C73.2049 75.2165 73.3255 74.223 73.8635 73.4421C74.4061 72.6611 75.2966 72.1944 76.2474 72.1944H87.0398C87.9905 72.1944 88.881 72.6611 89.4237 73.4421C89.9663 74.223 90.0869 75.2165 89.7483 76.1038V76.1038Z" fill="#5798F7"/>
<path d="M77.4162 77.6888C76.6463 77.6888 76.0201 77.065 76.0201 76.2979C76.0201 75.5308 76.6463 74.9069 77.4162 74.9069C78.186 74.9069 78.8122 75.5308 78.8122 76.2979C78.8122 77.065 78.186 77.6888 77.4162 77.6888ZM77.4162 75.7757C77.1286 75.7757 76.8921 76.0067 76.8921 76.2979C76.8921 76.589 77.124 76.8154 77.4162 76.8154C77.7083 76.8154 77.9356 76.5844 77.9356 76.2979C77.9356 76.0114 77.7037 75.7757 77.4162 75.7757Z" fill="white"/>
<path d="M81.6691 70.5261C81.3676 70.5261 81.1218 70.2812 81.1218 69.9809V64.8192C81.1218 64.5188 81.3676 64.2739 81.6691 64.2739C81.9706 64.2739 82.2164 64.5188 82.2164 64.8192V69.9809C82.2164 70.2812 81.9706 70.5261 81.6691 70.5261Z" fill="white"/>
<path d="M77.8567 70.5261C77.6248 70.5261 77.4115 70.3783 77.3373 70.1472L76.0433 66.1916C75.9506 65.9051 76.1082 65.5955 76.3958 65.5031C76.6833 65.4107 76.9941 65.5678 77.0868 65.8543L78.3808 69.8099C78.4736 70.0964 78.3159 70.406 78.0283 70.4984C77.9727 70.5169 77.917 70.5261 77.8567 70.5261Z" fill="white"/>
<path d="M35.6147 87.254C48.7261 83.8899 74.5685 77.2541 74.5685 77.2541L75.765 80.3918C76.0804 81.219 76.8781 81.7689 77.7686 81.7689H85.3284C86.3348 81.7689 87.2346 81.1496 87.5917 80.2162L89.906 74.1534H90.1982C92.3223 74.1534 94.0476 75.8724 94.0476 77.9889V78.0489H94.4187C95.9585 78.0489 97.2107 79.2966 97.2107 80.8308V81.9768C98.4305 81.9768 99.3905 83.0119 99.2978 84.2226C99.2375 85.022 98.9406 85.7845 98.4444 86.413L93.4726 92.7161C91.891 94.717 89.4839 95.8953 86.9285 95.9184L74.5916 96.0201L48.0118 113.529C45.6187 115.105 42.8127 115.946 39.9465 115.946H38.8705C28.8944 115.946 21.9561 106.057 25.3881 96.7225L25.4948 96.4313C27.1784 91.8565 30.949 88.4509 35.6054 87.2586L35.6147 87.254Z" fill="white"/>
<path d="M39.9511 116.538H38.8751C33.9219 116.538 29.4556 114.218 26.6172 110.17C23.7788 106.126 23.1295 101.145 24.8316 96.5101L24.9383 96.2189C26.6775 91.487 30.6104 87.9196 35.4616 86.6719L74.9302 76.5426L76.3169 80.1747C76.5442 80.7709 77.1239 81.1683 77.764 81.1683H85.3237C86.0751 81.1683 86.7615 80.6969 87.0259 79.9991L89.4886 73.5528H90.1935C92.4661 73.5528 94.3445 75.258 94.6088 77.453C96.3898 77.5546 97.8043 79.0241 97.8043 80.8217V81.4409C98.3284 81.5611 98.8108 81.8337 99.1818 82.2357C99.6873 82.781 99.9471 83.5204 99.8914 84.2597C99.8218 85.1793 99.4833 86.0481 98.9128 86.7736L93.941 93.0766C92.2389 95.2347 89.6834 96.4823 86.9331 96.5054L74.7725 96.6071L48.3411 114.019C45.8413 115.664 42.9379 116.533 39.9465 116.533L39.9511 116.538ZM35.7631 87.8272C31.2922 88.9732 27.6653 92.268 26.0606 96.6302L25.9539 96.9213C24.3863 101.187 24.9846 105.766 27.5958 109.491C30.2069 113.215 34.3207 115.35 38.8751 115.35H39.9511C42.7107 115.35 45.3868 114.546 47.6872 113.03L74.4154 95.4241L86.9285 95.3225C89.317 95.304 91.5339 94.218 93.0088 92.3465L97.9806 86.0434C98.4073 85.5028 98.6577 84.8558 98.7087 84.1719C98.7412 83.7514 98.5974 83.3494 98.3145 83.0444C98.027 82.7348 97.6374 82.5638 97.2153 82.5638H96.6217V80.8263C96.6217 79.6202 95.6384 78.6359 94.4233 78.6359H93.454V77.9798C93.454 76.233 92.058 74.8005 90.3188 74.7404L88.1529 80.4197C87.7123 81.5795 86.5806 82.3559 85.333 82.3559H77.7732C76.6416 82.3559 75.612 81.6489 75.2131 80.5953L74.2067 77.9567L35.7678 87.8225L35.7631 87.8272Z" fill="#5798F7"/>
<path d="M93.5186 77.7933L90.5096 84.048L91.5844 84.5613L94.5934 78.3066L93.5186 77.7933Z" fill="#5798F7"/>
<path d="M96.6563 81.5153L93.6473 87.77L94.7221 88.2833L97.7312 82.0286L96.6563 81.5153Z" fill="#5798F7"/>
<path d="M97.6513 54.1123C95.2025 58.835 88.997 62.1899 81.7248 62.1899C74.4525 62.1899 68.0986 58.7564 65.7147 53.9413C67.7647 53.1142 69.8285 52.4118 71.9017 51.848C73.3533 51.4506 74.3922 50.1752 74.4896 48.678L74.907 42.1393H87.4618L87.8746 48.5994C87.972 50.1336 89.0619 51.4275 90.56 51.7972C92.9346 52.3794 95.3045 53.1604 97.6513 54.1123Z" fill="white"/>
<path d="M81.7294 62.7859C74.3783 62.7859 67.7276 59.3386 65.1814 54.2093C65.1072 54.0614 65.0979 53.8904 65.1582 53.7333C65.2185 53.5762 65.339 53.4561 65.4921 53.396C67.5652 52.5596 69.6709 51.848 71.744 51.2796C72.9498 50.9515 73.8171 49.8886 73.896 48.641L74.3134 42.1022C74.3319 41.788 74.5917 41.5477 74.907 41.5477H87.4618C87.7772 41.5477 88.0369 41.7926 88.0555 42.1022L88.4683 48.5624C88.5518 49.8424 89.4469 50.9099 90.7037 51.2195C93.0737 51.8017 95.4901 52.5919 97.8786 53.5624C98.0316 53.627 98.1522 53.7518 98.2125 53.9043C98.2682 54.0614 98.2589 54.2324 98.1847 54.3803C96.9092 56.8433 94.6923 58.9366 91.7751 60.4477C88.8208 61.9772 85.347 62.7813 81.7294 62.7813V62.7859ZM66.5542 54.2509C69.105 58.6686 75.0972 61.5983 81.7294 61.5983C88.3616 61.5983 94.2053 58.7333 96.8072 54.4126C94.6784 53.5762 92.5357 52.8923 90.4255 52.3747C88.6631 51.9404 87.4016 50.4385 87.2856 48.641L86.9053 42.7353H75.4682L75.0833 48.7195C74.972 50.4709 73.7568 51.9589 72.0594 52.4256C70.2367 52.9246 68.3862 53.5392 66.5542 54.2555V54.2509Z" fill="#5798F7"/>
<path d="M91.3391 41.0669C90.7084 42.7443 89.1825 43.7239 87.9303 43.2572C87.754 43.1925 87.5917 43.1001 87.4479 42.9846L87.383 43.7517C87.1047 46.9633 84.4101 49.4309 81.1728 49.4309C77.9356 49.4309 75.241 46.9633 74.9627 43.7517L74.907 43.0955C74.805 43.1602 74.6983 43.211 74.5824 43.2526C73.3301 43.7193 71.8043 42.7397 71.1735 41.0622C70.5428 39.3848 71.0437 37.6473 72.2959 37.1806C72.9916 36.9218 73.7661 37.1066 74.4293 37.6103L74.5499 35.3322C74.6009 34.3525 75.4172 33.5854 76.4004 33.5854H85.9313C86.9192 33.5854 87.7355 34.3571 87.7818 35.3414L87.8978 37.7628C88.5981 37.1482 89.4561 36.8987 90.2167 37.1806C91.469 37.6473 91.9699 39.3894 91.3391 41.0622V41.0669Z" fill="white"/>
<path d="M81.1682 50.0273C77.6388 50.0273 74.7401 47.4118 74.3737 43.9275C73.7012 44.0523 72.9823 43.8952 72.3144 43.4654C71.5631 42.9848 70.9555 42.2039 70.6077 41.2751C70.2598 40.3462 70.1996 39.362 70.45 38.5071C70.7144 37.5875 71.2941 36.9221 72.0825 36.6263C72.653 36.4138 73.2791 36.423 73.882 36.6402L73.9516 35.3001C74.0212 34.0062 75.0925 32.9896 76.3958 32.9896H85.9267C87.2346 32.9896 88.3106 34.0108 88.3709 35.314L88.4358 36.7141C89.0944 36.4276 89.7901 36.3907 90.4162 36.6263C91.9745 37.2086 92.6331 39.2927 91.8864 41.2751C91.5385 42.2039 90.931 42.9848 90.1796 43.4654C89.4561 43.9322 88.677 44.08 87.9535 43.8906C87.6102 47.3933 84.7023 50.0273 81.1589 50.0273H81.1682ZM75.4126 42.0837L75.5517 43.7011C75.8068 46.6308 78.2185 48.8351 81.1682 48.8351C84.1179 48.8351 86.5342 46.6262 86.7847 43.7011L86.947 41.8388L87.8143 42.5135C87.9117 42.5921 88.023 42.6521 88.139 42.6983C88.561 42.8555 89.0619 42.7723 89.5442 42.4627C90.0822 42.1161 90.5182 41.5477 90.7826 40.8546C91.2881 39.5098 90.9356 38.0819 90.008 37.7354C89.4886 37.5413 88.8486 37.7169 88.292 38.2067L87.3644 39.0246L87.1882 35.3694C87.1557 34.6994 86.6038 34.1772 85.9313 34.1772H76.4004C75.7326 34.1772 75.1807 34.6994 75.1436 35.3648L74.9627 38.7659L74.0676 38.0866C73.5435 37.6892 72.9777 37.5644 72.5046 37.74C72.0779 37.8971 71.7579 38.2899 71.6002 38.8352C71.424 39.4451 71.4703 40.166 71.7301 40.8592C71.9898 41.5523 72.4304 42.1253 72.9684 42.4673C73.4507 42.7769 73.947 42.8601 74.3737 42.703C74.4479 42.6752 74.5221 42.6383 74.5917 42.5967L75.4172 42.0884L75.4126 42.0837Z" fill="#5798F7"/>
<path d="M106.491 18.068C106.491 19.6715 105.183 20.9746 103.574 20.9746H103.463L95.4808 20.8129C95.4158 20.8129 95.3509 20.8129 95.2813 20.8129C91.7797 20.8129 88.5703 22.6798 86.8357 25.6603C86.5157 26.2056 85.9267 26.5383 85.2913 26.5383H85.0965C84.2849 26.5383 83.5706 25.9931 83.3619 25.2121C82.9492 23.6641 82.7497 22.116 82.7497 20.6003C82.7497 13.9368 86.5389 7.85556 92.3595 4.82417C92.2574 3.90921 91.4736 3.19757 90.5321 3.19757V2.01459C91.9467 2.01459 93.1386 2.985 93.4679 4.29737C94.683 3.76595 95.977 3.36855 97.3313 3.11439C97.9342 2.95265 98.565 2.86486 99.2189 2.86486C103.115 2.86023 106.292 5.85928 106.482 9.73631C106.584 11.7603 105.846 13.6133 104.585 14.9858C103.384 16.1041 101.774 16.788 100.007 16.788V17.8786C102.071 17.8786 103.95 17.0745 105.35 15.7667C106.046 16.2982 106.491 17.1346 106.491 18.0726V18.068Z" fill="#FFD14C"/>
<path d="M84.7162 30.1843C83.4593 30.1843 82.5085 29.542 82.5085 28.6917C82.5085 27.8414 83.4547 27.1991 84.7162 27.1991C85.9777 27.1991 86.9238 27.8414 86.9238 28.6917C86.9238 29.542 85.9777 30.1843 84.7162 30.1843ZM84.7162 28.2666C83.9834 28.2666 83.5799 28.5854 83.5799 28.6917C83.5799 28.798 83.9834 29.1168 84.7162 29.1168C85.449 29.1168 85.8525 28.798 85.8525 28.6917C85.8525 28.5854 85.449 28.2666 84.7162 28.2666Z" fill="#5798F7"/>
<path d="M86.2003 31.4043C87.9303 31.9357 88.9924 33.664 88.677 35.4385L88.357 37.2592C88.2642 37.8044 87.5917 38.017 87.2021 37.6196C86.4601 36.8664 85.3423 35.688 84.0901 34.2416C82.7219 36.1501 79.2342 37.7536 75.0647 37.3192C70.5938 36.8571 66.9901 34.2509 66.9901 31.7463C66.9901 29.2417 69.6987 26.8803 74.7911 28.2389L86.205 31.3997L86.2003 31.4043Z" fill="#FFD14C"/>
<path d="M87.3644 39.5838L86.2467 39.1679C86.5945 38.2391 87.2021 37.4581 87.9535 36.9776C88.7605 36.46 89.637 36.3352 90.4208 36.631L90.0034 37.7446C89.5814 37.5875 89.0805 37.6707 88.5981 37.9803C88.0601 38.3269 87.6195 38.8953 87.3598 39.5884L87.3644 39.5838Z" fill="#5798F7"/>
<path d="M75.1436 39.5838C74.8838 38.8906 74.4432 38.3176 73.9052 37.9757C73.4229 37.6661 72.9266 37.5829 72.5 37.74L72.0826 36.6263C72.871 36.3352 73.7476 36.4554 74.5499 36.9729C75.3013 37.4535 75.9088 38.2345 76.2567 39.1633L75.1389 39.5792L75.1436 39.5838Z" fill="#5798F7"/>
<path d="M78.0562 43.5671C78.0562 44.5283 77.2724 45.3093 76.3077 45.3093C76.1546 45.3093 76.0016 45.2908 75.8578 45.2492C75.6723 44.764 75.5517 44.2464 75.5053 43.7196L75.3662 42.1208C75.6305 41.9636 75.9784 41.825 76.3077 41.825C77.2724 41.825 78.0562 42.606 78.0562 43.5671Z" fill="#A9D0FF"/>
<path d="M86.9888 41.9406L86.8311 43.7104C86.7847 44.2603 86.6548 44.7964 86.4554 45.3047C86.4183 45.3047 86.3812 45.3047 86.3441 45.3047C85.3794 45.3047 84.5956 44.5237 84.5956 43.5626C84.5956 42.6014 85.3794 41.8204 86.3441 41.8204C86.5621 41.8204 86.794 41.8666 86.9841 41.936L86.9888 41.9406Z" fill="#A9D0FF"/>
<path d="M81.4743 43.8537H80.1896C80.0319 43.8537 79.8835 43.7844 79.7861 43.6596C79.6887 43.5349 79.6562 43.3777 79.6887 43.2252L80.6812 39.1403C80.7461 38.8676 81.0244 38.7013 81.298 38.766C81.5717 38.8307 81.7386 39.1079 81.6737 39.3806L80.8343 42.8371H81.4696C81.7526 42.8371 81.9798 43.0635 81.9798 43.3454C81.9798 43.6273 81.7526 43.8537 81.4696 43.8537H81.4743Z" fill="#5798F7"/>
<path d="M81.7897 45.5633C81.6691 45.5633 81.5439 45.5494 81.4233 45.5263C81.145 45.4708 80.9688 45.2028 81.0244 44.9256C81.0801 44.6483 81.3491 44.4727 81.6273 44.5281C82.0633 44.6159 82.49 44.3341 82.5781 43.8997C82.6338 43.6224 82.9028 43.4468 83.181 43.5023C83.4593 43.5577 83.6356 43.8258 83.5799 44.103C83.4825 44.579 83.2042 44.9903 82.8007 45.2583C82.4993 45.457 82.1468 45.5633 81.7943 45.5633H81.7897Z" fill="#5798F7"/>
<path d="M78.5014 41.6723C78.8037 41.6723 79.0487 41.4282 79.0487 41.1271C79.0487 40.8259 78.8037 40.5818 78.5014 40.5818C78.1992 40.5818 77.9541 40.8259 77.9541 41.1271C77.9541 41.4282 78.1992 41.6723 78.5014 41.6723Z" fill="#5798F7"/>
<path d="M83.4222 41.6723C83.7245 41.6723 83.9695 41.4282 83.9695 41.1271C83.9695 40.8259 83.7245 40.5818 83.4222 40.5818C83.12 40.5818 82.875 40.8259 82.875 41.1271C82.875 41.4282 83.12 41.6723 83.4222 41.6723Z" fill="#5798F7"/>
<path d="M36.2965 30.9193L36.2872 30.9054C36.0692 30.471 35.3318 30.3925 34.6407 30.7344C35.3318 30.3925 35.7167 29.764 35.5034 29.325L35.4941 29.3111C35.2761 28.8768 34.5387 28.7982 33.8477 29.1402C34.5387 28.7982 34.9237 28.1697 34.7103 27.7307L34.701 27.7169C34.4831 27.2825 33.7456 27.2039 33.0546 27.5459C33.7456 27.2039 34.1306 26.5755 33.9172 26.1365L33.908 26.1226C33.7364 25.7807 33.2447 25.6651 32.7067 25.7945L32.0342 24.4452C31.64 23.655 31.7281 22.7077 32.2661 22.0099C34.4042 19.2558 34.9144 15.425 33.2586 12.0978C33.1102 11.7975 32.9433 11.5063 32.767 11.2291C32.7067 11.1367 32.6418 11.0535 32.5815 10.9657C32.4563 10.7855 32.3357 10.6052 32.2012 10.4343C32.1224 10.3326 32.0342 10.2402 31.9508 10.1431C31.8255 9.99526 31.7003 9.85201 31.5658 9.71338C31.4684 9.61634 31.3664 9.52854 31.269 9.4315C31.1345 9.30673 31.0046 9.18197 30.8655 9.06644C30.7588 8.97864 30.6475 8.89546 30.5362 8.81228C30.3971 8.706 30.2579 8.59972 30.1095 8.50267C29.9936 8.42412 29.8683 8.35018 29.7478 8.27624C29.5993 8.18845 29.4556 8.10065 29.3025 8.01747C29.1773 7.94815 29.0474 7.88808 28.9176 7.82338C28.7645 7.74945 28.6161 7.68013 28.4584 7.61544C28.3239 7.55999 28.1848 7.50915 28.0503 7.45832C27.8926 7.40287 27.7395 7.34742 27.5819 7.30121C27.4427 7.25962 27.2989 7.21803 27.1552 7.18106C26.9975 7.13947 26.8352 7.10713 26.6728 7.07478C26.5244 7.04705 26.3806 7.01933 26.2322 6.99622C26.0699 6.97312 25.9076 6.95463 25.7452 6.93615C25.5968 6.92229 25.4438 6.90842 25.2954 6.89918C25.133 6.88994 24.9707 6.88994 24.8084 6.88994C24.6553 6.88994 24.5023 6.88994 24.3492 6.89918C24.1869 6.90842 24.0246 6.92691 23.8623 6.94077C23.7092 6.95463 23.5515 6.9685 23.3985 6.99622C23.2361 7.01933 23.0738 7.0563 22.9115 7.09326C22.7584 7.12561 22.6054 7.15334 22.4523 7.19493C22.29 7.23651 22.1277 7.29197 21.9654 7.34742C21.8169 7.39363 21.6639 7.43522 21.5155 7.49529C21.3485 7.55999 21.1862 7.63854 21.0192 7.70786C20.8801 7.76793 20.7363 7.82338 20.6018 7.8927H20.5925C20.2957 8.04981 19.9989 8.21155 19.7113 8.39639C16.1401 10.6838 14.5354 15.1985 15.8897 19.2096C17.2208 23.1559 20.7688 25.5127 24.5255 25.6374C25.3789 25.6651 26.1487 26.1596 26.5291 26.9221L27.6932 29.2603L30.5269 27.8601L33.2865 33.4007L35.4477 32.3333C36.1388 31.9913 36.5237 31.3629 36.3104 30.9239L36.2965 30.9193Z" fill="#FFD14C"/>
<path d="M28.0828 18.2068C28.0039 18.6689 27.8416 19.3436 27.4938 19.4914C27.3222 19.5654 27.132 19.473 26.9743 19.3436C25.4856 18.1421 26.1766 18.9 25.6247 19.8195C25.3047 20.351 24.9151 20.2955 24.5209 20.1476C24.1638 20.0321 24.1591 20.2955 24.2055 20.3925L29.4556 28.3361L31.2829 27.435L28.3843 18.1606C28.3564 18.0173 28.157 18.0127 28.0828 18.2068V18.2068ZM30.8702 27.0052L29.386 27.74L24.5626 20.3694C24.5626 20.3694 25.2815 20.6559 25.7128 20.0506C26.0375 19.6024 25.9725 19.0109 26.0931 18.9647C26.2091 18.9184 26.441 19.2049 27.03 19.6116C27.8926 20.2077 28.2173 18.6088 28.2173 18.6088L30.8702 27.0099V27.0052Z" fill="white"/>
<path d="M29.4046 28.5163L24.0849 20.4711C24.0246 20.351 24.02 20.1846 24.1174 20.0737C24.1823 19.9998 24.3168 19.9258 24.5672 20.009C24.9707 20.1661 25.249 20.1661 25.5041 19.7456C25.6711 19.4683 25.7128 19.2049 25.7453 19.0109C25.7777 18.8168 25.8056 18.655 25.954 18.595C26.1349 18.5257 26.3296 18.6412 27.0624 19.2327C27.1691 19.3159 27.3175 19.4083 27.4335 19.3574C27.6422 19.2696 27.8277 18.8445 27.939 18.1837L27.9483 18.156C28.0178 17.9758 28.1709 17.9018 28.2868 17.9111C28.4074 17.9203 28.5002 18.0081 28.5234 18.1282L31.4545 27.4997L29.4046 28.5117V28.5163ZM29.3489 27.9109L29.502 28.1466L31.102 27.3564L31.0186 27.0884L29.3489 27.9156V27.9109ZM24.8687 20.5728L29.4324 27.5505L30.6893 26.9267L28.2126 19.0894C28.0967 19.3805 27.9065 19.7179 27.6143 19.838C27.401 19.9212 27.1784 19.8842 26.9418 19.7225C26.696 19.5515 26.5105 19.399 26.3714 19.2881C26.2972 19.2281 26.2183 19.1634 26.1627 19.1264C26.1534 19.1634 26.1488 19.2096 26.1395 19.2558C26.1024 19.4868 26.0421 19.8334 25.8241 20.1292C25.5551 20.5035 25.1655 20.5866 24.8641 20.5728H24.8687ZM24.3261 20.2678C24.3261 20.2678 24.3261 20.3094 24.3307 20.3232L27.4103 24.9812L24.3261 20.2632V20.2678ZM28.2405 18.2068L28.695 19.6532L28.2405 18.2022V18.2068Z" fill="white"/>
<path d="M21.0471 13.9C21.599 15.009 21.1444 16.3537 20.0313 16.9036C18.9183 17.4535 17.5686 17.0007 17.0167 15.8916C16.4648 14.7826 16.9193 13.4379 18.0324 12.888C19.1455 12.3381 20.4951 12.7909 21.0471 13.9V13.9Z" fill="white"/>
<path d="M33.0592 27.5461L28.6393 29.7318C27.9482 30.0738 27.2108 29.9999 26.9928 29.5609L26.9836 29.547C26.7656 29.1126 27.1505 28.4795 27.8416 28.1376L32.2615 25.9518C32.9525 25.6099 33.69 25.6838 33.908 26.1228L33.9172 26.1367C34.1352 26.5711 33.7503 27.2041 33.0592 27.5461V27.5461Z" fill="#83B7FF"/>
<path d="M33.8523 29.1402L29.4324 31.3259C28.7413 31.6679 28.0039 31.594 27.7859 31.155L27.7767 31.1411C27.5587 30.7067 27.9436 30.0736 28.6347 29.7317L33.0546 27.546C33.7456 27.204 34.4831 27.2779 34.701 27.7169L34.7103 27.7308C34.9283 28.1652 34.5434 28.7982 33.8523 29.1402V29.1402Z" fill="#83B7FF"/>
<path d="M34.6454 30.7343L30.2255 32.92C29.5344 33.262 28.797 33.1881 28.579 32.7491L28.5697 32.7352C28.3518 32.3008 28.7367 31.6677 29.4278 31.3258L33.8477 29.14C34.5387 28.7981 35.2762 28.872 35.4941 29.311L35.5034 29.3249C35.7214 29.7593 35.3364 30.3923 34.6454 30.7343V30.7343Z" fill="#83B7FF"/>
<path d="M35.4385 32.3288L31.0185 34.5146C30.3275 34.8565 29.5901 34.7826 29.3721 34.3436L29.3628 34.3297C29.1448 33.8953 29.5298 33.2623 30.2208 32.9203L34.6407 30.7346C35.3318 30.3926 36.0692 30.4665 36.2872 30.9055L36.2965 30.9194C36.5145 31.3538 36.1295 31.9869 35.4385 32.3288V32.3288Z" fill="#83B7FF"/>
<path d="M118.438 57.8414V27.7955C118.438 25.3556 120.433 23.3686 122.881 23.3686H148.135C150.584 23.3686 152.578 25.3556 152.578 27.7955V47.0328C152.578 49.4727 150.584 51.4597 148.135 51.4597H124.463L118.443 57.8368L118.438 57.8414ZM122.881 24.7595C121.198 24.7595 119.83 26.1227 119.83 27.8001V54.3479L123.86 50.0781H148.135C149.818 50.0781 151.187 48.7149 151.187 47.0374V27.7955C151.187 26.1181 149.818 24.7549 148.135 24.7549H122.881V24.7595Z" fill="#83B7FF"/>
</g>
<defs>
<clipPath id="clip0_1_1328">
<rect width="153.529" height="120" fill="white"/>
</clipPath>
</defs>
</svg>
